<svg width="83" height="69" viewBox="0 0 83 69" fill="none" xmlns="http://www.w3.org/2000/svg">
<path d="M6.164 9L2.936 4.812L3.656 4.38L7.184 9H6.164ZM0.416 9V0.599999H1.28V9H0.416ZM1.016 5.148V4.368H3.644V5.148H1.016ZM3.728 4.896L2.912 4.752L6.044 0.599999H7.004L3.728 4.896ZM10.8665 9.06C10.2585 9.06 9.7105 8.924 9.2225 8.652C8.7425 8.372 8.3625 7.992 8.0825 7.512C7.8025 7.024 7.6625 6.468 7.6625 5.844C7.6625 5.212 7.8025 4.656 8.0825 4.176C8.3625 3.696 8.7425 3.32 9.2225 3.048C9.7025 2.776 10.2505 2.64 10.8665 2.64C11.4905 2.64 12.0425 2.776 12.5225 3.048C13.0105 3.32 13.3905 3.696 13.6625 4.176C13.9425 4.656 14.0825 5.212 14.0825 5.844C14.0825 6.468 13.9425 7.024 13.6625 7.512C13.3905 7.992 13.0105 8.372 12.5225 8.652C12.0345 8.924 11.4825 9.06 10.8665 9.06ZM10.8665 8.304C11.3225 8.304 11.7265 8.204 12.0785 8.004C12.4305 7.796 12.7065 7.508 12.9065 7.14C13.1145 6.764 13.2185 6.332 13.2185 5.844C13.2185 5.348 13.1145 4.916 12.9065 4.548C12.7065 4.18 12.4305 3.896 12.0785 3.696C11.7265 3.488 11.3265 3.384 10.8785 3.384C10.4305 3.384 10.0305 3.488 9.6785 3.696C9.3265 3.896 9.0465 4.18 8.8385 4.548C8.6305 4.916 8.5265 5.348 8.5265 5.844C8.5265 6.332 8.6305 6.764 8.8385 7.14C9.0465 7.508 9.3265 7.796 9.6785 8.004C10.0305 8.204 10.4265 8.304 10.8665 8.304ZM19.1554 9.06C18.6114 9.06 18.1194 8.936 17.6794 8.688C17.2394 8.432 16.8874 8.068 16.6234 7.596C16.3674 7.116 16.2394 6.532 16.2394 5.844C16.2394 5.156 16.3674 4.576 16.6234 4.104C16.8794 3.624 17.2274 3.26 17.6674 3.012C18.1074 2.764 18.6034 2.64 19.1554 2.64C19.7554 2.64 20.2914 2.776 20.7634 3.048C21.2434 3.312 21.6194 3.688 21.8914 4.176C22.1634 4.656 22.2994 5.212 22.2994 5.844C22.2994 6.484 22.1634 7.044 21.8914 7.524C21.6194 8.004 21.2434 8.38 20.7634 8.652C20.2914 8.924 19.7554 9.06 19.1554 9.06ZM15.9034 11.328V2.7H16.7194V4.596L16.6354 5.856L16.7554 7.128V11.328H15.9034ZM19.0954 8.304C19.5434 8.304 19.9434 8.204 20.2954 8.004C20.6474 7.796 20.9274 7.508 21.1354 7.14C21.3434 6.764 21.4474 6.332 21.4474 5.844C21.4474 5.356 21.3434 4.928 21.1354 4.56C20.9274 4.192 20.6474 3.904 20.2954 3.696C19.9434 3.488 19.5434 3.384 19.0954 3.384C18.6474 3.384 18.2434 3.488 17.8834 3.696C17.5314 3.904 17.2514 4.192 17.0434 4.56C16.8434 4.928 16.7434 5.356 16.7434 5.844C16.7434 6.332 16.8434 6.764 17.0434 7.14C17.2514 7.508 17.5314 7.796 17.8834 8.004C18.2434 8.204 18.6474 8.304 19.0954 8.304ZM24.13 9V2.7H29.794V9H28.942V3.216L29.158 3.444H24.766L24.982 3.216V9H24.13ZM32.3239 11.388C32.0279 11.388 31.7439 11.34 31.4719 11.244C31.2079 11.148 30.9799 11.004 30.7879 10.812L31.1839 10.176C31.3439 10.328 31.5159 10.444 31.6999 10.524C31.8919 10.612 32.1039 10.656 32.3359 10.656C32.6159 10.656 32.8559 10.576 33.0559 10.416C33.2639 10.264 33.4599 9.992 33.6439 9.6L34.0519 8.676L34.1479 8.544L36.7399 2.7H37.5799L34.4239 9.756C34.2479 10.164 34.0519 10.488 33.8359 10.728C33.6279 10.968 33.3999 11.136 33.1519 11.232C32.9039 11.336 32.6279 11.388 32.3239 11.388ZM34.0039 9.18L31.0999 2.7H31.9879L34.5559 8.484L34.0039 9.18ZM41.3715 9.06C40.7475 9.06 40.1875 8.924 39.6915 8.652C39.2035 8.372 38.8195 7.992 38.5395 7.512C38.2595 7.024 38.1195 6.468 38.1195 5.844C38.1195 5.212 38.2595 4.656 38.5395 4.176C38.8195 3.696 39.2035 3.32 39.6915 3.048C40.1875 2.776 40.7475 2.64 41.3715 2.64C41.9075 2.64 42.3915 2.744 42.8235 2.952C43.2555 3.16 43.5955 3.472 43.8435 3.888L43.2075 4.32C42.9915 4 42.7235 3.764 42.4035 3.612C42.0835 3.46 41.7355 3.384 41.3595 3.384C40.9115 3.384 40.5075 3.488 40.1475 3.696C39.7875 3.896 39.5035 4.18 39.2955 4.548C39.0875 4.916 38.9835 5.348 38.9835 5.844C38.9835 6.34 39.0875 6.772 39.2955 7.14C39.5035 7.508 39.7875 7.796 40.1475 8.004C40.5075 8.204 40.9115 8.304 41.3595 8.304C41.7355 8.304 42.0835 8.228 42.4035 8.076C42.7235 7.924 42.9915 7.692 43.2075 7.38L43.8435 7.812C43.5955 8.22 43.2555 8.532 42.8235 8.748C42.3915 8.956 41.9075 9.06 41.3715 9.06ZM45.6236 3.948C45.4476 3.948 45.2956 3.884 45.1676 3.756C45.0476 3.628 44.9876 3.472 44.9876 3.288C44.9876 3.096 45.0476 2.94 45.1676 2.82C45.2956 2.7 45.4476 2.64 45.6236 2.64C45.7996 2.64 45.9476 2.7 46.0676 2.82C46.1956 2.94 46.2596 3.096 46.2596 3.288C46.2596 3.472 46.1956 3.628 46.0676 3.756C45.9476 3.884 45.7996 3.948 45.6236 3.948ZM45.6236 9.06C45.4476 9.06 45.2956 8.996 45.1676 8.868C45.0476 8.74 44.9876 8.584 44.9876 8.4C44.9876 8.208 45.0476 8.052 45.1676 7.932C45.2956 7.812 45.4476 7.752 45.6236 7.752C45.7996 7.752 45.9476 7.812 46.0676 7.932C46.1956 8.052 46.2596 8.208 46.2596 8.4C46.2596 8.584 46.1956 8.74 46.0676 8.868C45.9476 8.996 45.7996 9.06 45.6236 9.06ZM0.416 28V19.6H3.908C4.796 19.6 5.492 19.784 5.996 20.152C6.508 20.512 6.764 21.044 6.764 21.748C6.764 22.444 6.52 22.972 6.032 23.332C5.544 23.684 4.904 23.86 4.112 23.86L4.316 23.56C5.252 23.56 5.964 23.744 6.452 24.112C6.94 24.48 7.184 25.02 7.184 25.732C7.184 26.452 6.928 27.012 6.416 27.412C5.912 27.804 5.152 28 4.136 28H0.416ZM1.292 27.292H4.136C4.848 27.292 5.388 27.16 5.756 26.896C6.124 26.632 6.308 26.224 6.308 25.672C6.308 25.128 6.124 24.728 5.756 24.472C5.388 24.216 4.848 24.088 4.136 24.088H1.292V27.292ZM1.292 23.404H3.86C4.508 23.404 5.004 23.276 5.348 23.02C5.7 22.756 5.876 22.368 5.876 21.856C5.876 21.344 5.7 20.96 5.348 20.704C5.004 20.44 4.508 20.308 3.86 20.308H1.292V23.404ZM8.04828 27.988L8.10828 27.256C8.16428 27.264 8.21628 27.276 8.26428 27.292C8.32028 27.3 8.36828 27.304 8.40828 27.304C8.66428 27.304 8.86828 27.208 9.02028 27.016C9.18028 26.824 9.30028 26.568 9.38028 26.248C9.46028 25.928 9.51628 25.568 9.54828 25.168C9.58028 24.76 9.60828 24.352 9.63228 23.944L9.74028 21.7H14.3603V28H13.5083V22.192L13.7243 22.444H10.2923L10.4963 22.18L10.4003 24.004C10.3763 24.548 10.3323 25.068 10.2683 25.564C10.2123 26.06 10.1203 26.496 9.99228 26.872C9.87228 27.248 9.70428 27.544 9.48828 27.76C9.27228 27.968 8.99628 28.072 8.66028 28.072C8.56428 28.072 8.46428 28.064 8.36028 28.048C8.26428 28.032 8.16028 28.012 8.04828 27.988ZM20.6943 28V26.608L20.6583 26.38V24.052C20.6583 23.516 20.5063 23.104 20.2023 22.816C19.9063 22.528 19.4623 22.384 18.8703 22.384C18.4623 22.384 18.0743 22.452 17.7063 22.588C17.3383 22.724 17.0263 22.904 16.7703 23.128L16.3863 22.492C16.7063 22.22 17.0903 22.012 17.5383 21.868C17.9863 21.716 18.4583 21.64 18.9543 21.64C19.7703 21.64 20.3983 21.844 20.8383 22.252C21.2863 22.652 21.5103 23.264 21.5103 24.088V28H20.6943ZM18.5223 28.06C18.0503 28.06 17.6383 27.984 17.2863 27.832C16.9423 27.672 16.6783 27.456 16.4943 27.184C16.3103 26.904 16.2183 26.584 16.2183 26.224C16.2183 25.896 16.2943 25.6 16.4463 25.336C16.6063 25.064 16.8623 24.848 17.2143 24.688C17.5743 24.52 18.0543 24.436 18.6543 24.436H20.8263V25.072H18.6783C18.0703 25.072 17.6463 25.18 17.4063 25.396C17.1743 25.612 17.0583 25.88 17.0583 26.2C17.0583 26.56 17.1983 26.848 17.4783 27.064C17.7583 27.28 18.1503 27.388 18.6543 27.388C19.1343 27.388 19.5463 27.28 19.8903 27.064C20.2423 26.84 20.4983 26.52 20.6583 26.104L20.8503 26.692C20.6903 27.108 20.4103 27.44 20.0103 27.688C19.6183 27.936 19.1223 28.06 18.5223 28.06ZM23.7784 28V21.7H28.2424V22.444H24.4144L24.6304 22.228V28H23.7784ZM31.7728 28.06C31.1648 28.06 30.6168 27.924 30.1288 27.652C29.6488 27.372 29.2688 26.992 28.9888 26.512C28.7088 26.024 28.5688 25.468 28.5688 24.844C28.5688 24.212 28.7088 23.656 28.9888 23.176C29.2688 22.696 29.6488 22.32 30.1288 22.048C30.6088 21.776 31.1568 21.64 31.7728 21.64C32.3968 21.64 32.9488 21.776 33.4288 22.048C33.9168 22.32 34.2968 22.696 34.5688 23.176C34.8488 23.656 34.9888 24.212 34.9888 24.844C34.9888 25.468 34.8488 26.024 34.5688 26.512C34.2968 26.992 33.9168 27.372 33.4288 27.652C32.9408 27.924 32.3888 28.06 31.7728 28.06ZM31.7728 27.304C32.2288 27.304 32.6328 27.204 32.9848 27.004C33.3368 26.796 33.6128 26.508 33.8128 26.14C34.0208 25.764 34.1248 25.332 34.1248 24.844C34.1248 24.348 34.0208 23.916 33.8128 23.548C33.6128 23.18 33.3368 22.896 32.9848 22.696C32.6328 22.488 32.2328 22.384 31.7848 22.384C31.3368 22.384 30.9368 22.488 30.5848 22.696C30.2328 22.896 29.9528 23.18 29.7448 23.548C29.5368 23.916 29.4328 24.348 29.4328 24.844C29.4328 25.332 29.5368 25.764 29.7448 26.14C29.9528 26.508 30.2328 26.796 30.5848 27.004C30.9368 27.204 31.3328 27.304 31.7728 27.304ZM38.4548 28.072C38.9748 28.072 39.4428 27.992 39.8588 27.832C40.2828 27.672 40.6188 27.452 40.8668 27.172C41.1148 26.884 41.2388 26.552 41.2388 26.176C41.2388 25.696 41.0348 25.316 40.6268 25.036C40.2268 24.756 39.6668 24.616 38.9468 24.616L38.9108 24.844C39.3188 24.844 39.6828 24.78 40.0028 24.652C40.3228 24.524 40.5788 24.344 40.7708 24.112C40.9628 23.88 41.0588 23.608 41.0588 23.296C41.0588 22.944 40.9388 22.644 40.6988 22.396C40.4588 22.14 40.1348 21.944 39.7268 21.808C39.3268 21.672 38.8748 21.612 38.3708 21.628C38.0028 21.628 37.6348 21.68 37.2668 21.784C36.9068 21.88 36.5428 22.024 36.1748 22.216L36.4148 22.876C36.7428 22.708 37.0748 22.584 37.4108 22.504C37.7468 22.416 38.0708 22.368 38.3828 22.36C38.7268 22.36 39.0348 22.4 39.3068 22.48C39.5788 22.56 39.7908 22.68 39.9428 22.84C40.1028 23 40.1828 23.192 40.1828 23.416C40.1828 23.624 40.1148 23.804 39.9788 23.956C39.8508 24.108 39.6668 24.224 39.4268 24.304C39.1868 24.384 38.9108 24.424 38.5988 24.424H37.5788V25.048H38.6588C39.1868 25.048 39.6028 25.144 39.9068 25.336C40.2108 25.52 40.3628 25.78 40.3628 26.116C40.3628 26.348 40.2828 26.556 40.1228 26.74C39.9628 26.924 39.7388 27.068 39.4508 27.172C39.1628 27.276 38.8228 27.332 38.4308 27.34C38.0388 27.34 37.6428 27.284 37.2428 27.172C36.8428 27.052 36.4908 26.88 36.1868 26.656L35.9108 27.292C36.2548 27.556 36.6508 27.752 37.0988 27.88C37.5468 28.008 37.9988 28.072 38.4548 28.072ZM47.0849 28V26.608L47.0489 26.38V24.052C47.0489 23.516 46.8969 23.104 46.5929 22.816C46.2969 22.528 45.8529 22.384 45.2609 22.384C44.8529 22.384 44.4649 22.452 44.0969 22.588C43.7289 22.724 43.4169 22.904 43.1609 23.128L42.7769 22.492C43.0969 22.22 43.4809 22.012 43.9289 21.868C44.3769 21.716 44.8489 21.64 45.3449 21.64C46.1609 21.64 46.7889 21.844 47.2289 22.252C47.6769 22.652 47.9009 23.264 47.9009 24.088V28H47.0849ZM44.9129 28.06C44.4409 28.06 44.0289 27.984 43.6769 27.832C43.3329 27.672 43.0689 27.456 42.8849 27.184C42.7009 26.904 42.6089 26.584 42.6089 26.224C42.6089 25.896 42.6849 25.6 42.8369 25.336C42.9969 25.064 43.2529 24.848 43.6049 24.688C43.9649 24.52 44.4449 24.436 45.0449 24.436H47.2169V25.072H45.0689C44.4609 25.072 44.0369 25.18 43.7969 25.396C43.5649 25.612 43.4489 25.88 43.4489 26.2C43.4489 26.56 43.5889 26.848 43.8689 27.064C44.1489 27.28 44.5409 27.388 45.0449 27.388C45.5249 27.388 45.9369 27.28 46.2809 27.064C46.6329 26.84 46.8889 26.52 47.0489 26.104L47.2409 26.692C47.0809 27.108 46.8009 27.44 46.4009 27.688C46.0089 27.936 45.5129 28.06 44.9129 28.06ZM54.309 27.256L54.117 27.484V21.7H54.969V27.484L54.741 27.256H58.257L58.029 27.484V21.7H58.881V28H50.169V21.7H51.021V27.484L50.805 27.256H54.309ZM59.049 29.38V27.772L59.265 28H57.981V27.256H59.853V29.38H59.049ZM61.3018 28V21.7H62.1538V26.704L66.3658 21.7H67.1218V28H66.2698V22.984L62.0698 28H61.3018ZM70.7636 28V22.216L70.9796 22.444H68.3756V21.7H74.0036V22.444H71.3996L71.6156 22.216V28H70.7636ZM79.1474 28V26.608L79.1114 26.38V24.052C79.1114 23.516 78.9594 23.104 78.6554 22.816C78.3594 22.528 77.9154 22.384 77.3234 22.384C76.9154 22.384 76.5274 22.452 76.1594 22.588C75.7914 22.724 75.4794 22.904 75.2234 23.128L74.8394 22.492C75.1594 22.22 75.5434 22.012 75.9914 21.868C76.4394 21.716 76.9114 21.64 77.4074 21.64C78.2234 21.64 78.8514 21.844 79.2914 22.252C79.7394 22.652 79.9634 23.264 79.9634 24.088V28H79.1474ZM76.9754 28.06C76.5034 28.06 76.0914 27.984 75.7394 27.832C75.3954 27.672 75.1314 27.456 74.9474 27.184C74.7634 26.904 74.6714 26.584 74.6714 26.224C74.6714 25.896 74.7474 25.6 74.8994 25.336C75.0594 25.064 75.3154 24.848 75.6674 24.688C76.0274 24.52 76.5074 24.436 77.1074 24.436H79.2794V25.072H77.1314C76.5234 25.072 76.0994 25.18 75.8594 25.396C75.6274 25.612 75.5114 25.88 75.5114 26.2C75.5114 26.56 75.6514 26.848 75.9314 27.064C76.2114 27.28 76.6034 27.388 77.1074 27.388C77.5874 27.388 77.9994 27.28 78.3434 27.064C78.6954 26.84 78.9514 26.52 79.1114 26.104L79.3034 26.692C79.1434 27.108 78.8634 27.44 78.4634 27.688C78.0714 27.936 77.5754 28.06 76.9754 28.06ZM82.2915 22.948C82.1155 22.948 81.9635 22.884 81.8355 22.756C81.7155 22.628 81.6555 22.472 81.6555 22.288C81.6555 22.096 81.7155 21.94 81.8355 21.82C81.9635 21.7 82.1155 21.64 82.2915 21.64C82.4675 21.64 82.6155 21.7 82.7355 21.82C82.8635 21.94 82.9275 22.096 82.9275 22.288C82.9275 22.472 82.8635 22.628 82.7355 22.756C82.6155 22.884 82.4675 22.948 82.2915 22.948ZM82.2915 28.06C82.1155 28.06 81.9635 27.996 81.8355 27.868C81.7155 27.74 81.6555 27.584 81.6555 27.4C81.6555 27.208 81.7155 27.052 81.8355 26.932C81.9635 26.812 82.1155 26.752 82.2915 26.752C82.4675 26.752 82.6155 26.812 82.7355 26.932C82.8635 27.052 82.9275 27.208 82.9275 27.4C82.9275 27.584 82.8635 27.74 82.7355 27.868C82.6155 27.996 82.4675 28.06 82.2915 28.06ZM0.416 47V38.6H1.292V46.232H6.368V38.6H7.244V47H0.416ZM7.748 48.968V46.76L7.976 47H6.368V46.232H8.576V48.968H7.748ZM10.1378 47V40.7H12.9218C13.6338 40.7 14.1938 40.836 14.6018 41.108C15.0178 41.38 15.2258 41.78 15.2258 42.308C15.2258 42.82 15.0298 43.216 14.6378 43.496C14.2458 43.768 13.7298 43.904 13.0898 43.904L13.2578 43.652C14.0098 43.652 14.5618 43.792 14.9138 44.072C15.2658 44.352 15.4418 44.756 15.4418 45.284C15.4418 45.828 15.2418 46.252 14.8418 46.556C14.4498 46.852 13.8378 47 13.0058 47H10.1378ZM10.9658 46.328H12.9698C13.5058 46.328 13.9098 46.244 14.1818 46.076C14.4618 45.9 14.6018 45.62 14.6018 45.236C14.6018 44.852 14.4778 44.572 14.2298 44.396C13.9818 44.22 13.5898 44.132 13.0538 44.132H10.9658V46.328ZM10.9658 43.496H12.8618C13.3498 43.496 13.7218 43.404 13.9778 43.22C14.2418 43.036 14.3738 42.768 14.3738 42.416C14.3738 42.064 14.2418 41.8 13.9778 41.624C13.7218 41.448 13.3498 41.36 12.8618 41.36H10.9658V43.496ZM20.1386 47.06C19.4826 47.06 18.9066 46.924 18.4106 46.652C17.9146 46.372 17.5266 45.992 17.2466 45.512C16.9666 45.024 16.8266 44.468 16.8266 43.844C16.8266 43.22 16.9586 42.668 17.2226 42.188C17.4946 41.708 17.8626 41.332 18.3266 41.06C18.7986 40.78 19.3266 40.64 19.9106 40.64C20.5026 40.64 21.0266 40.776 21.4826 41.048C21.9466 41.312 22.3106 41.688 22.5746 42.176C22.8386 42.656 22.9706 43.212 22.9706 43.844C22.9706 43.884 22.9666 43.928 22.9586 43.976C22.9586 44.016 22.9586 44.06 22.9586 44.108H17.4746V43.472H22.5026L22.1666 43.724C22.1666 43.268 22.0666 42.864 21.8666 42.512C21.6746 42.152 21.4106 41.872 21.0746 41.672C20.7386 41.472 20.3506 41.372 19.9106 41.372C19.4786 41.372 19.0906 41.472 18.7466 41.672C18.4026 41.872 18.1346 42.152 17.9426 42.512C17.7506 42.872 17.6546 43.284 17.6546 43.748V43.88C17.6546 44.36 17.7586 44.784 17.9666 45.152C18.1826 45.512 18.4786 45.796 18.8546 46.004C19.2386 46.204 19.6746 46.304 20.1626 46.304C20.5466 46.304 20.9026 46.236 21.2306 46.1C21.5666 45.964 21.8546 45.756 22.0946 45.476L22.5746 46.028C22.2946 46.364 21.9426 46.62 21.5186 46.796C21.1026 46.972 20.6426 47.06 20.1386 47.06ZM25.7753 47V41.216L25.9913 41.444H23.3873V40.7H29.0153V41.444H26.4113L26.6273 41.216V47H25.7753ZM30.3072 41.948C30.1312 41.948 29.9792 41.884 29.8512 41.756C29.7312 41.628 29.6712 41.472 29.6712 41.288C29.6712 41.096 29.7312 40.94 29.8512 40.82C29.9792 40.7 30.1312 40.64 30.3072 40.64C30.4832 40.64 30.6312 40.7 30.7512 40.82C30.8792 40.94 30.9432 41.096 30.9432 41.288C30.9432 41.472 30.8792 41.628 30.7512 41.756C30.6312 41.884 30.4832 41.948 30.3072 41.948ZM30.3072 47.06C30.1312 47.06 29.9792 46.996 29.8512 46.868C29.7312 46.74 29.6712 46.584 29.6712 46.4C29.6712 46.208 29.7312 46.052 29.8512 45.932C29.9792 45.812 30.1312 45.752 30.3072 45.752C30.4832 45.752 30.6312 45.812 30.7512 45.932C30.8792 46.052 30.9432 46.208 30.9432 46.4C30.9432 46.584 30.8792 46.74 30.7512 46.868C30.6312 46.996 30.4832 47.06 30.3072 47.06ZM0.416 66V57.6H6.56V58.356H1.292V61.104H4.04C5.032 61.104 5.784 61.308 6.296 61.716C6.816 62.116 7.076 62.708 7.076 63.492C7.076 64.3 6.796 64.92 6.236 65.352C5.684 65.784 4.888 66 3.848 66H0.416ZM1.292 65.292H3.836C4.612 65.292 5.196 65.144 5.588 64.848C5.988 64.544 6.188 64.104 6.188 63.528C6.188 62.384 5.404 61.812 3.836 61.812H1.292V65.292ZM12.831 66V64.608L12.795 64.38V62.052C12.795 61.516 12.643 61.104 12.339 60.816C12.043 60.528 11.599 60.384 11.007 60.384C10.599 60.384 10.211 60.452 9.84303 60.588C9.47503 60.724 9.16303 60.904 8.90703 61.128L8.52303 60.492C8.84303 60.22 9.22703 60.012 9.67503 59.868C10.123 59.716 10.595 59.64 11.091 59.64C11.907 59.64 12.535 59.844 12.975 60.252C13.423 60.652 13.647 61.264 13.647 62.088V66H12.831ZM10.659 66.06C10.187 66.06 9.77503 65.984 9.42303 65.832C9.07903 65.672 8.81503 65.456 8.63103 65.184C8.44703 64.904 8.35503 64.584 8.35503 64.224C8.35503 63.896 8.43103 63.6 8.58303 63.336C8.74303 63.064 8.99903 62.848 9.35103 62.688C9.71103 62.52 10.191 62.436 10.791 62.436H12.963V63.072H10.815C10.207 63.072 9.78303 63.18 9.54303 63.396C9.31103 63.612 9.19503 63.88 9.19503 64.2C9.19503 64.56 9.33503 64.848 9.61503 65.064C9.89503 65.28 10.287 65.388 10.791 65.388C11.271 65.388 11.683 65.28 12.027 65.064C12.379 64.84 12.635 64.52 12.795 64.104L12.987 64.692C12.827 65.108 12.547 65.44 12.147 65.688C11.755 65.936 11.259 66.06 10.659 66.06ZM17.1151 66V60.216L17.3311 60.444H14.7271V59.7H20.3551V60.444H17.7511L17.9671 60.216V66H17.1151ZM25.499 66V64.608L25.463 64.38V62.052C25.463 61.516 25.311 61.104 25.007 60.816C24.711 60.528 24.267 60.384 23.675 60.384C23.267 60.384 22.879 60.452 22.511 60.588C22.143 60.724 21.831 60.904 21.575 61.128L21.191 60.492C21.511 60.22 21.895 60.012 22.343 59.868C22.791 59.716 23.263 59.64 23.759 59.64C24.575 59.64 25.203 59.844 25.643 60.252C26.091 60.652 26.315 61.264 26.315 62.088V66H25.499ZM23.327 66.06C22.855 66.06 22.443 65.984 22.091 65.832C21.747 65.672 21.483 65.456 21.299 65.184C21.115 64.904 21.023 64.584 21.023 64.224C21.023 63.896 21.099 63.6 21.251 63.336C21.411 63.064 21.667 62.848 22.019 62.688C22.379 62.52 22.859 62.436 23.459 62.436H25.631V63.072H23.483C22.875 63.072 22.451 63.18 22.211 63.396C21.979 63.612 21.863 63.88 21.863 64.2C21.863 64.56 22.003 64.848 22.283 65.064C22.563 65.28 22.955 65.388 23.459 65.388C23.939 65.388 24.351 65.28 24.695 65.064C25.047 64.84 25.303 64.52 25.463 64.104L25.655 64.692C25.495 65.108 25.215 65.44 24.815 65.688C24.423 65.936 23.927 66.06 23.327 66.06ZM31.8351 66.06C31.2911 66.06 30.7991 65.936 30.3591 65.688C29.9191 65.432 29.5671 65.068 29.3031 64.596C29.0471 64.116 28.9191 63.532 28.9191 62.844C28.9191 62.156 29.0471 61.576 29.3031 61.104C29.5591 60.624 29.9071 60.26 30.3471 60.012C30.7871 59.764 31.2831 59.64 31.8351 59.64C32.4351 59.64 32.9711 59.776 33.4431 60.048C33.9231 60.312 34.2991 60.688 34.5711 61.176C34.8431 61.656 34.9791 62.212 34.9791 62.844C34.9791 63.484 34.8431 64.044 34.5711 64.524C34.2991 65.004 33.9231 65.38 33.4431 65.652C32.9711 65.924 32.4351 66.06 31.8351 66.06ZM28.5831 68.328V59.7H29.3991V61.596L29.3151 62.856L29.4351 64.128V68.328H28.5831ZM31.7751 65.304C32.2231 65.304 32.6231 65.204 32.9751 65.004C33.3271 64.796 33.6071 64.508 33.8151 64.14C34.0231 63.764 34.1271 63.332 34.1271 62.844C34.1271 62.356 34.0231 61.928 33.8151 61.56C33.6071 61.192 33.3271 60.904 32.9751 60.696C32.6231 60.488 32.2231 60.384 31.7751 60.384C31.3271 60.384 30.9231 60.488 30.5631 60.696C30.2111 60.904 29.9311 61.192 29.7231 61.56C29.5231 61.928 29.4231 62.356 29.4231 62.844C29.4231 63.332 29.5231 63.764 29.7231 64.14C29.9311 64.508 30.2111 64.796 30.5631 65.004C30.9231 65.204 31.3271 65.304 31.7751 65.304ZM39.5097 66.06C38.8537 66.06 38.2777 65.924 37.7817 65.652C37.2857 65.372 36.8977 64.992 36.6177 64.512C36.3377 64.024 36.1977 63.468 36.1977 62.844C36.1977 62.22 36.3297 61.668 36.5937 61.188C36.8657 60.708 37.2337 60.332 37.6977 60.06C38.1697 59.78 38.6977 59.64 39.2817 59.64C39.8737 59.64 40.3977 59.776 40.8537 60.048C41.3177 60.312 41.6817 60.688 41.9457 61.176C42.2097 61.656 42.3417 62.212 42.3417 62.844C42.3417 62.884 42.3377 62.928 42.3297 62.976C42.3297 63.016 42.3297 63.06 42.3297 63.108H36.8457V62.472H41.8737L41.5377 62.724C41.5377 62.268 41.4377 61.864 41.2377 61.512C41.0457 61.152 40.7817 60.872 40.4457 60.672C40.1097 60.472 39.7217 60.372 39.2817 60.372C38.8497 60.372 38.4617 60.472 38.1177 60.672C37.7737 60.872 37.5057 61.152 37.3137 61.512C37.1217 61.872 37.0257 62.284 37.0257 62.748V62.88C37.0257 63.36 37.1297 63.784 37.3377 64.152C37.5537 64.512 37.8497 64.796 38.2257 65.004C38.6097 65.204 39.0457 65.304 39.5337 65.304C39.9177 65.304 40.2737 65.236 40.6017 65.1C40.9377 64.964 41.2257 64.756 41.4657 64.476L41.9457 65.028C41.6657 65.364 41.3137 65.62 40.8897 65.796C40.4737 65.972 40.0137 66.06 39.5097 66.06ZM48.1198 66V63.732L48.2758 63.912H46.1398C45.3318 63.912 44.6998 63.736 44.2438 63.384C43.7878 63.032 43.5598 62.52 43.5598 61.848C43.5598 61.128 43.8038 60.592 44.2918 60.24C44.7798 59.88 45.4318 59.7 46.2478 59.7H48.8998V66H48.1198ZM43.5118 66L45.2398 63.576H46.1278L44.4358 66H43.5118ZM48.1198 63.48V60.192L48.2758 60.444H46.2718C45.6878 60.444 45.2318 60.556 44.9038 60.78C44.5838 61.004 44.4238 61.368 44.4238 61.872C44.4238 62.808 45.0198 63.276 46.2118 63.276H48.2758L48.1198 63.48ZM51.3892 60.948C51.2132 60.948 51.0612 60.884 50.9332 60.756C50.8132 60.628 50.7532 60.472 50.7532 60.288C50.7532 60.096 50.8132 59.94 50.9332 59.82C51.0612 59.7 51.2132 59.64 51.3892 59.64C51.5652 59.64 51.7132 59.7 51.8332 59.82C51.9612 59.94 52.0252 60.096 52.0252 60.288C52.0252 60.472 51.9612 60.628 51.8332 60.756C51.7132 60.884 51.5652 60.948 51.3892 60.948ZM51.3892 66.06C51.2132 66.06 51.0612 65.996 50.9332 65.868C50.8132 65.74 50.7532 65.584 50.7532 65.4C50.7532 65.208 50.8132 65.052 50.9332 64.932C51.0612 64.812 51.2132 64.752 51.3892 64.752C51.5652 64.752 51.7132 64.812 51.8332 64.932C51.9612 65.052 52.0252 65.208 52.0252 65.4C52.0252 65.584 51.9612 65.74 51.8332 65.868C51.7132 65.996 51.5652 66.06 51.3892 66.06Z" fill="#2C3BA0"/>
</svg>
