<svg width="95" height="67" viewBox="0 0 95 67" fill="none" xmlns="http://www.w3.org/2000/svg">
<path d="M1.416 9V0.599999H8.484V9H7.608V1.128L7.836 1.368H2.064L2.292 1.128V9H1.416ZM9.96234 8.988L10.0223 8.256C10.0783 8.264 10.1303 8.276 10.1783 8.292C10.2343 8.3 10.2823 8.304 10.3223 8.304C10.5783 8.304 10.7823 8.208 10.9343 8.016C11.0943 7.824 11.2143 7.568 11.2943 7.248C11.3743 6.928 11.4303 6.568 11.4623 6.168C11.4943 5.76 11.5223 5.352 11.5463 4.944L11.6543 2.7H16.2743V9H15.4223V3.192L15.6383 3.444H12.2063L12.4103 3.18L12.3143 5.004C12.2903 5.548 12.2463 6.068 12.1823 6.564C12.1263 7.06 12.0343 7.496 11.9063 7.872C11.7863 8.248 11.6183 8.544 11.4023 8.76C11.1863 8.968 10.9103 9.072 10.5743 9.072C10.4783 9.072 10.3783 9.064 10.2743 9.048C10.1783 9.032 10.0743 9.012 9.96234 8.988ZM22.6084 9V7.608L22.5724 7.38V5.052C22.5724 4.516 22.4204 4.104 22.1164 3.816C21.8204 3.528 21.3764 3.384 20.7844 3.384C20.3764 3.384 19.9884 3.452 19.6204 3.588C19.2524 3.724 18.9404 3.904 18.6844 4.128L18.3004 3.492C18.6204 3.22 19.0044 3.012 19.4524 2.868C19.9004 2.716 20.3724 2.64 20.8684 2.64C21.6844 2.64 22.3124 2.844 22.7524 3.252C23.2004 3.652 23.4244 4.264 23.4244 5.088V9H22.6084ZM20.4364 9.06C19.9644 9.06 19.5524 8.984 19.2004 8.832C18.8564 8.672 18.5924 8.456 18.4084 8.184C18.2244 7.904 18.1324 7.584 18.1324 7.224C18.1324 6.896 18.2084 6.6 18.3604 6.336C18.5204 6.064 18.7764 5.848 19.1284 5.688C19.4884 5.52 19.9684 5.436 20.5684 5.436H22.7404V6.072H20.5924C19.9844 6.072 19.5604 6.18 19.3204 6.396C19.0884 6.612 18.9724 6.88 18.9724 7.2C18.9724 7.56 19.1124 7.848 19.3924 8.064C19.6724 8.28 20.0644 8.388 20.5684 8.388C21.0484 8.388 21.4604 8.28 21.8044 8.064C22.1564 7.84 22.4124 7.52 22.5724 7.104L22.7644 7.692C22.6044 8.108 22.3244 8.44 21.9244 8.688C21.5324 8.936 21.0364 9.06 20.4364 9.06ZM28.3325 9.06C27.7085 9.06 27.1485 8.924 26.6525 8.652C26.1645 8.372 25.7805 7.992 25.5005 7.512C25.2205 7.024 25.0805 6.468 25.0805 5.844C25.0805 5.212 25.2205 4.656 25.5005 4.176C25.7805 3.696 26.1645 3.32 26.6525 3.048C27.1485 2.776 27.7085 2.64 28.3325 2.64C28.8685 2.64 29.3525 2.744 29.7845 2.952C30.2165 3.16 30.5565 3.472 30.8045 3.888L30.1685 4.32C29.9525 4 29.6845 3.764 29.3645 3.612C29.0445 3.46 28.6965 3.384 28.3205 3.384C27.8725 3.384 27.4685 3.488 27.1085 3.696C26.7485 3.896 26.4645 4.18 26.2565 4.548C26.0485 4.916 25.9445 5.348 25.9445 5.844C25.9445 6.34 26.0485 6.772 26.2565 7.14C26.4645 7.508 26.7485 7.796 27.1085 8.004C27.4685 8.204 27.8725 8.304 28.3205 8.304C28.6965 8.304 29.0445 8.228 29.3645 8.076C29.6845 7.924 29.9525 7.692 30.1685 7.38L30.8045 7.812C30.5565 8.22 30.2165 8.532 29.7845 8.748C29.3525 8.956 28.8685 9.06 28.3325 9.06ZM33.537 9V3.216L33.753 3.444H31.149V2.7H36.777V3.444H34.173L34.389 3.216V9H33.537ZM38.0089 9V2.7H38.8609V7.704L43.0729 2.7H43.8289V9H42.9769V3.984L38.7769 9H38.0089ZM50.8906 9L48.2986 5.88L49.0066 5.46L51.8986 9H50.8906ZM46.2706 9V2.7H47.1226V9H46.2706ZM46.8586 6.192V5.46H48.8866V6.192H46.8586ZM49.0786 5.94L48.2866 5.82L50.7946 2.7H51.7186L49.0786 5.94ZM1.368 28V19.6H2.256V28H1.368ZM4.98909 28V19.6H8.13309C8.84509 19.6 9.45709 19.716 9.96909 19.948C10.4811 20.172 10.8731 20.5 11.1451 20.932C11.4251 21.356 11.5651 21.872 11.5651 22.48C11.5651 23.072 11.4251 23.584 11.1451 24.016C10.8731 24.44 10.4811 24.768 9.96909 25C9.45709 25.232 8.84509 25.348 8.13309 25.348H5.48109L5.87709 24.928V28H4.98909ZM5.87709 25L5.48109 24.568H8.10909C8.94909 24.568 9.58509 24.388 10.0171 24.028C10.4571 23.66 10.6771 23.144 10.6771 22.48C10.6771 21.808 10.4571 21.288 10.0171 20.92C9.58509 20.552 8.94909 20.368 8.10909 20.368H5.48109L5.87709 19.948V25ZM16.3024 28.072C15.5584 28.072 14.9304 27.908 14.4184 27.58C13.9064 27.244 13.5184 26.764 13.2544 26.14C12.9904 25.508 12.8584 24.752 12.8584 23.872C12.8584 22.92 13.0184 22.124 13.3384 21.484C13.6664 20.836 14.1184 20.348 14.6944 20.02C15.2704 19.692 15.9384 19.528 16.6984 19.528C17.0744 19.528 17.4344 19.564 17.7784 19.636C18.1224 19.708 18.4264 19.824 18.6904 19.984L18.3424 20.68C18.1264 20.536 17.8784 20.436 17.5984 20.38C17.3184 20.316 17.0224 20.284 16.7104 20.284C15.8064 20.284 15.0824 20.572 14.5384 21.148C14.0024 21.724 13.7344 22.584 13.7344 23.728C13.7344 23.904 13.7424 24.124 13.7584 24.388C13.7824 24.644 13.8304 24.9 13.9024 25.156L13.6024 24.928C13.6904 24.512 13.8624 24.16 14.1184 23.872C14.3744 23.576 14.6944 23.352 15.0784 23.2C15.4624 23.048 15.8824 22.972 16.3384 22.972C16.8984 22.972 17.3904 23.076 17.8144 23.284C18.2384 23.492 18.5704 23.784 18.8104 24.16C19.0504 24.536 19.1704 24.98 19.1704 25.492C19.1704 26.012 19.0464 26.468 18.7984 26.86C18.5504 27.244 18.2064 27.544 17.7664 27.76C17.3344 27.968 16.8464 28.072 16.3024 28.072ZM16.2664 27.34C16.6664 27.34 17.0184 27.268 17.3224 27.124C17.6344 26.972 17.8784 26.76 18.0544 26.488C18.2304 26.208 18.3184 25.884 18.3184 25.516C18.3184 24.964 18.1264 24.524 17.7424 24.196C17.3664 23.868 16.8544 23.704 16.2064 23.704C15.7744 23.704 15.3984 23.784 15.0784 23.944C14.7584 24.104 14.5064 24.324 14.3224 24.604C14.1384 24.876 14.0464 25.188 14.0464 25.54C14.0464 25.844 14.1304 26.136 14.2984 26.416C14.4664 26.688 14.7144 26.912 15.0424 27.088C15.3784 27.256 15.7864 27.34 16.2664 27.34ZM23.3629 28.072C22.6909 28.072 22.1109 27.976 21.6229 27.784C21.1429 27.592 20.7709 27.316 20.5069 26.956C20.2509 26.588 20.1229 26.156 20.1229 25.66C20.1229 25.18 20.2469 24.772 20.4949 24.436C20.7509 24.092 21.1189 23.828 21.5989 23.644C22.0869 23.46 22.6749 23.368 23.3629 23.368C24.0429 23.368 24.6269 23.46 25.1149 23.644C25.6029 23.828 25.9749 24.092 26.2309 24.436C26.4949 24.772 26.6269 25.18 26.6269 25.66C26.6269 26.156 26.4949 26.588 26.2309 26.956C25.9669 27.316 25.5909 27.592 25.1029 27.784C24.6149 27.976 24.0349 28.072 23.3629 28.072ZM23.3629 27.34C24.1069 27.34 24.6869 27.188 25.1029 26.884C25.5269 26.58 25.7389 26.168 25.7389 25.648C25.7389 25.128 25.5269 24.72 25.1029 24.424C24.6869 24.12 24.1069 23.968 23.3629 23.968C22.6189 23.968 22.0389 24.12 21.6229 24.424C21.2069 24.72 20.9989 25.128 20.9989 25.648C20.9989 26.168 21.2069 26.58 21.6229 26.884C22.0389 27.188 22.6189 27.34 23.3629 27.34ZM23.3629 23.86C22.7389 23.86 22.2069 23.776 21.7669 23.608C21.3349 23.44 21.0029 23.2 20.7709 22.888C20.5389 22.568 20.4229 22.188 20.4229 21.748C20.4229 21.284 20.5429 20.888 20.7829 20.56C21.0309 20.224 21.3749 19.968 21.8149 19.792C22.2549 19.616 22.7709 19.528 23.3629 19.528C23.9549 19.528 24.4709 19.616 24.9109 19.792C25.3589 19.968 25.7069 20.224 25.9549 20.56C26.2029 20.888 26.3269 21.284 26.3269 21.748C26.3269 22.188 26.2109 22.568 25.9789 22.888C25.7469 23.2 25.4069 23.44 24.9589 23.608C24.5189 23.776 23.9869 23.86 23.3629 23.86ZM23.3629 23.284C24.0189 23.284 24.5309 23.148 24.8989 22.876C25.2669 22.604 25.4509 22.24 25.4509 21.784C25.4509 21.304 25.2589 20.932 24.8749 20.668C24.4989 20.396 23.9949 20.26 23.3629 20.26C22.7309 20.26 22.2269 20.396 21.8509 20.668C21.4749 20.932 21.2869 21.3 21.2869 21.772C21.2869 22.236 21.4669 22.604 21.8269 22.876C22.1949 23.148 22.7069 23.284 23.3629 23.284ZM6.636 43.448C6.156 43.664 5.676 43.828 5.196 43.94C4.724 44.052 4.268 44.108 3.828 44.108C2.844 44.108 2.076 43.872 1.524 43.4C0.98 42.92 0.708 42.244 0.708 41.372V38.6H1.584V41.276C1.584 41.924 1.788 42.428 2.196 42.788C2.612 43.148 3.184 43.328 3.912 43.328C4.344 43.328 4.792 43.272 5.256 43.16C5.72 43.04 6.18 42.872 6.636 42.656V43.448ZM6.48 47V38.6H7.344V47H6.48ZM12.6893 47.06C12.0333 47.06 11.4573 46.924 10.9613 46.652C10.4653 46.372 10.0773 45.992 9.79734 45.512C9.51734 45.024 9.37734 44.468 9.37734 43.844C9.37734 43.22 9.50934 42.668 9.77334 42.188C10.0453 41.708 10.4133 41.332 10.8773 41.06C11.3493 40.78 11.8773 40.64 12.4613 40.64C13.0533 40.64 13.5773 40.776 14.0333 41.048C14.4973 41.312 14.8613 41.688 15.1253 42.176C15.3893 42.656 15.5213 43.212 15.5213 43.844C15.5213 43.884 15.5173 43.928 15.5093 43.976C15.5093 44.016 15.5093 44.06 15.5093 44.108H10.0253V43.472H15.0533L14.7173 43.724C14.7173 43.268 14.6173 42.864 14.4173 42.512C14.2253 42.152 13.9613 41.872 13.6253 41.672C13.2893 41.472 12.9013 41.372 12.4613 41.372C12.0293 41.372 11.6413 41.472 11.2973 41.672C10.9533 41.872 10.6853 42.152 10.4933 42.512C10.3013 42.872 10.2053 43.284 10.2053 43.748V43.88C10.2053 44.36 10.3093 44.784 10.5173 45.152C10.7333 45.512 11.0293 45.796 11.4053 46.004C11.7893 46.204 12.2253 46.304 12.7133 46.304C13.0973 46.304 13.4533 46.236 13.7813 46.1C14.1173 45.964 14.4053 45.756 14.6453 45.476L15.1253 46.028C14.8453 46.364 14.4933 46.62 14.0693 46.796C13.6533 46.972 13.1933 47.06 12.6893 47.06ZM20.6593 47.06C20.1153 47.06 19.6233 46.936 19.1833 46.688C18.7433 46.432 18.3913 46.068 18.1273 45.596C17.8713 45.116 17.7433 44.532 17.7433 43.844C17.7433 43.156 17.8713 42.576 18.1273 42.104C18.3833 41.624 18.7313 41.26 19.1713 41.012C19.6113 40.764 20.1073 40.64 20.6593 40.64C21.2593 40.64 21.7953 40.776 22.2673 41.048C22.7473 41.312 23.1233 41.688 23.3953 42.176C23.6673 42.656 23.8033 43.212 23.8033 43.844C23.8033 44.484 23.6673 45.044 23.3953 45.524C23.1233 46.004 22.7473 46.38 22.2673 46.652C21.7953 46.924 21.2593 47.06 20.6593 47.06ZM17.4073 49.328V40.7H18.2233V42.596L18.1393 43.856L18.2593 45.128V49.328H17.4073ZM20.5993 46.304C21.0473 46.304 21.4473 46.204 21.7993 46.004C22.1513 45.796 22.4313 45.508 22.6393 45.14C22.8473 44.764 22.9513 44.332 22.9513 43.844C22.9513 43.356 22.8473 42.928 22.6393 42.56C22.4313 42.192 22.1513 41.904 21.7993 41.696C21.4473 41.488 21.0473 41.384 20.5993 41.384C20.1513 41.384 19.7473 41.488 19.3873 41.696C19.0353 41.904 18.7553 42.192 18.5473 42.56C18.3473 42.928 18.2473 43.356 18.2473 43.844C18.2473 44.332 18.3473 44.764 18.5473 45.14C18.7553 45.508 19.0353 45.796 19.3873 46.004C19.7473 46.204 20.1513 46.304 20.5993 46.304ZM25.6339 47V40.7H26.4859V43.484H30.4579V40.7H31.3099V47H30.4579V44.216H26.4859V47H25.6339ZM39.8755 47V40.7H40.7275V47H39.8755ZM36.3835 42.92C37.1755 42.928 37.7795 43.104 38.1955 43.448C38.6115 43.792 38.8195 44.288 38.8195 44.936C38.8195 45.608 38.5955 46.124 38.1475 46.484C37.6995 46.844 37.0595 47.02 36.2275 47.012L33.7315 47V40.7H34.5835V42.896L36.3835 42.92ZM36.1675 46.364C36.7595 46.372 37.2035 46.256 37.4995 46.016C37.8035 45.768 37.9555 45.408 37.9555 44.936C37.9555 44.464 37.8075 44.12 37.5115 43.904C37.2155 43.68 36.7675 43.564 36.1675 43.556L34.5835 43.532V46.34L36.1675 46.364ZM43.1534 47V40.7H44.0054V45.704L48.2174 40.7H48.9734V47H48.1214V41.984L43.9214 47H43.1534ZM46.0094 39.788C45.4814 39.788 45.0534 39.656 44.7254 39.392C44.4054 39.12 44.2374 38.732 44.2214 38.228H44.8334C44.8414 38.548 44.9534 38.8 45.1694 38.984C45.3854 39.168 45.6654 39.26 46.0094 39.26C46.3534 39.26 46.6334 39.168 46.8494 38.984C47.0734 38.8 47.1894 38.548 47.1974 38.228H47.8094C47.8014 38.732 47.6334 39.12 47.3054 39.392C46.9774 39.656 46.5454 39.788 46.0094 39.788ZM49.9031 48.2L53.8631 36.896H54.6431L50.6831 48.2H49.9031ZM55.6387 47V38.6H61.7827V39.356H56.5147V42.104H59.2627C60.2547 42.104 61.0067 42.308 61.5187 42.716C62.0387 43.116 62.2987 43.708 62.2987 44.492C62.2987 45.3 62.0187 45.92 61.4587 46.352C60.9067 46.784 60.1107 47 59.0707 47H55.6387ZM56.5147 46.292H59.0587C59.8347 46.292 60.4187 46.144 60.8107 45.848C61.2107 45.544 61.4107 45.104 61.4107 44.528C61.4107 43.384 60.6267 42.812 59.0587 42.812H56.5147V46.292ZM66.8417 47.06C66.1857 47.06 65.6097 46.924 65.1137 46.652C64.6177 46.372 64.2297 45.992 63.9497 45.512C63.6697 45.024 63.5297 44.468 63.5297 43.844C63.5297 43.22 63.6617 42.668 63.9257 42.188C64.1977 41.708 64.5657 41.332 65.0297 41.06C65.5017 40.78 66.0297 40.64 66.6137 40.64C67.2057 40.64 67.7297 40.776 68.1857 41.048C68.6497 41.312 69.0137 41.688 69.2777 42.176C69.5417 42.656 69.6737 43.212 69.6737 43.844C69.6737 43.884 69.6697 43.928 69.6617 43.976C69.6617 44.016 69.6617 44.06 69.6617 44.108H64.1777V43.472H69.2057L68.8697 43.724C68.8697 43.268 68.7697 42.864 68.5697 42.512C68.3777 42.152 68.1137 41.872 67.7777 41.672C67.4417 41.472 67.0537 41.372 66.6137 41.372C66.1817 41.372 65.7937 41.472 65.4497 41.672C65.1057 41.872 64.8377 42.152 64.6457 42.512C64.4537 42.872 64.3577 43.284 64.3577 43.748V43.88C64.3577 44.36 64.4617 44.784 64.6697 45.152C64.8857 45.512 65.1817 45.796 65.5577 46.004C65.9417 46.204 66.3777 46.304 66.8657 46.304C67.2497 46.304 67.6057 46.236 67.9337 46.1C68.2697 45.964 68.5577 45.756 68.7977 45.476L69.2777 46.028C68.9977 46.364 68.6457 46.62 68.2217 46.796C67.8057 46.972 67.3457 47.06 66.8417 47.06ZM70.2788 46.988L70.3388 46.256C70.3948 46.264 70.4468 46.276 70.4948 46.292C70.5508 46.3 70.5988 46.304 70.6388 46.304C70.8948 46.304 71.0988 46.208 71.2508 46.016C71.4108 45.824 71.5308 45.568 71.6108 45.248C71.6908 44.928 71.7468 44.568 71.7788 44.168C71.8108 43.76 71.8388 43.352 71.8628 42.944L71.9708 40.7H76.5908V47H75.7388V41.192L75.9548 41.444H72.5228L72.7268 41.18L72.6308 43.004C72.6068 43.548 72.5628 44.068 72.4988 44.564C72.4428 45.06 72.3508 45.496 72.2228 45.872C72.1028 46.248 71.9348 46.544 71.7188 46.76C71.5028 46.968 71.2268 47.072 70.8908 47.072C70.7948 47.072 70.6948 47.064 70.5908 47.048C70.4948 47.032 70.3908 47.012 70.2788 46.988ZM85.1568 47V40.7H86.0088V47H85.1568ZM81.6648 42.92C82.4568 42.928 83.0608 43.104 83.4768 43.448C83.8928 43.792 84.1008 44.288 84.1008 44.936C84.1008 45.608 83.8768 46.124 83.4288 46.484C82.9808 46.844 82.3408 47.02 81.5088 47.012L79.0128 47V40.7H79.8648V42.896L81.6648 42.92ZM81.4488 46.364C82.0408 46.372 82.4848 46.256 82.7808 46.016C83.0848 45.768 83.2368 45.408 83.2368 44.936C83.2368 44.464 83.0888 44.12 82.7928 43.904C82.4968 43.68 82.0488 43.564 81.4488 43.556L79.8648 43.532V46.34L81.4488 46.364ZM88.4347 47V40.7H89.2867V45.704L93.4987 40.7H94.2547V47H93.4027V41.984L89.2027 47H88.4347ZM91.2907 39.788C90.7627 39.788 90.3347 39.656 90.0067 39.392C89.6867 39.12 89.5187 38.732 89.5027 38.228H90.1147C90.1227 38.548 90.2347 38.8 90.4507 38.984C90.6667 39.168 90.9467 39.26 91.2907 39.26C91.6347 39.26 91.9147 39.168 92.1307 38.984C92.3547 38.8 92.4707 38.548 92.4787 38.228H93.0907C93.0827 38.732 92.9147 39.12 92.5867 39.392C92.2587 39.656 91.8267 39.788 91.2907 39.788ZM0.804 66.072C0.692 66.072 0.584 66.064 0.48 66.048C0.376 66.04 0.26 66.02 0.132 65.988L0.204 65.196C0.34 65.228 0.472 65.244 0.6 65.244C0.96 65.244 1.248 65.104 1.464 64.824C1.688 64.536 1.856 64.096 1.968 63.504C2.08 62.904 2.152 62.136 2.184 61.2L2.304 57.6H8.004V66H7.128V58.128L7.356 58.368H2.868L3.084 58.116L2.976 61.176C2.944 62.016 2.884 62.744 2.796 63.36C2.708 63.968 2.58 64.476 2.412 64.884C2.244 65.284 2.028 65.584 1.764 65.784C1.5 65.976 1.18 66.072 0.804 66.072ZM10.6339 66V59.7H11.4859V64.704L15.6979 59.7H16.4539V66H15.6019V60.984L11.4019 66H10.6339ZM20.0956 66V60.216L20.3116 60.444H17.7076V59.7H23.3356V60.444H20.7316L20.9476 60.216V66H20.0956ZM24.5675 66V59.7H25.4195V64.704L29.6315 59.7H30.3875V66H29.5355V60.984L25.3355 66H24.5675ZM32.8292 66V59.7H33.6812V64.704L37.8932 59.7H38.6492V66H37.7972V60.984L33.5972 66H32.8292ZM35.6852 58.788C35.1572 58.788 34.7292 58.656 34.4012 58.392C34.0812 58.12 33.9132 57.732 33.8972 57.228H34.5092C34.5172 57.548 34.6292 57.8 34.8452 57.984C35.0612 58.168 35.3412 58.26 35.6852 58.26C36.0292 58.26 36.3092 58.168 36.5252 57.984C36.7492 57.8 36.8652 57.548 36.8732 57.228H37.4852C37.4772 57.732 37.3092 58.12 36.9812 58.392C36.6532 58.656 36.2212 58.788 35.6852 58.788ZM40.5989 63.12V62.376H43.7429V63.12H40.5989ZM45.6729 66V59.7H46.5249V64.704L50.7369 59.7H51.4929V66H50.6409V60.984L46.4409 66H45.6729ZM56.5267 66.06C55.9187 66.06 55.3707 65.924 54.8827 65.652C54.4027 65.372 54.0227 64.992 53.7427 64.512C53.4627 64.024 53.3227 63.468 53.3227 62.844C53.3227 62.212 53.4627 61.656 53.7427 61.176C54.0227 60.696 54.4027 60.32 54.8827 60.048C55.3627 59.776 55.9107 59.64 56.5267 59.64C57.1507 59.64 57.7027 59.776 58.1827 60.048C58.6707 60.32 59.0507 60.696 59.3227 61.176C59.6027 61.656 59.7427 62.212 59.7427 62.844C59.7427 63.468 59.6027 64.024 59.3227 64.512C59.0507 64.992 58.6707 65.372 58.1827 65.652C57.6947 65.924 57.1427 66.06 56.5267 66.06ZM56.5267 65.304C56.9827 65.304 57.3867 65.204 57.7387 65.004C58.0907 64.796 58.3667 64.508 58.5667 64.14C58.7747 63.764 58.8787 63.332 58.8787 62.844C58.8787 62.348 58.7747 61.916 58.5667 61.548C58.3667 61.18 58.0907 60.896 57.7387 60.696C57.3867 60.488 56.9867 60.384 56.5387 60.384C56.0907 60.384 55.6907 60.488 55.3387 60.696C54.9867 60.896 54.7067 61.18 54.4987 61.548C54.2907 61.916 54.1867 62.348 54.1867 62.844C54.1867 63.332 54.2907 63.764 54.4987 64.14C54.7067 64.508 54.9867 64.796 55.3387 65.004C55.6907 65.204 56.0867 65.304 56.5267 65.304ZM61.5636 66V59.7H62.4156V62.484H66.3876V59.7H67.2396V66H66.3876V63.216H62.4156V66H61.5636ZM69.6612 66V59.7H70.5132V62.484H74.4852V59.7H75.3372V66H74.4852V63.216H70.5132V66H69.6612ZM81.6709 66V64.608L81.6349 64.38V62.052C81.6349 61.516 81.4829 61.104 81.1789 60.816C80.8829 60.528 80.4389 60.384 79.8469 60.384C79.4389 60.384 79.0509 60.452 78.6829 60.588C78.3149 60.724 78.0029 60.904 77.7469 61.128L77.3629 60.492C77.6829 60.22 78.0669 60.012 78.5149 59.868C78.9629 59.716 79.4349 59.64 79.9309 59.64C80.7469 59.64 81.3749 59.844 81.8149 60.252C82.2629 60.652 82.4869 61.264 82.4869 62.088V66H81.6709ZM79.4989 66.06C79.0269 66.06 78.6149 65.984 78.2629 65.832C77.9189 65.672 77.6549 65.456 77.4709 65.184C77.2869 64.904 77.1949 64.584 77.1949 64.224C77.1949 63.896 77.2709 63.6 77.4229 63.336C77.5829 63.064 77.8389 62.848 78.1909 62.688C78.5509 62.52 79.0309 62.436 79.6309 62.436H81.8029V63.072H79.6549C79.0469 63.072 78.6229 63.18 78.3829 63.396C78.1509 63.612 78.0349 63.88 78.0349 64.2C78.0349 64.56 78.1749 64.848 78.4549 65.064C78.7349 65.28 79.1269 65.388 79.6309 65.388C80.1109 65.388 80.5229 65.28 80.8669 65.064C81.2189 64.84 81.4749 64.52 81.6349 64.104L81.8269 64.692C81.6669 65.108 81.3869 65.44 80.9869 65.688C80.5949 65.936 80.0989 66.06 79.4989 66.06ZM88.823 66V63.732L88.979 63.912H86.843C86.035 63.912 85.403 63.736 84.947 63.384C84.491 63.032 84.263 62.52 84.263 61.848C84.263 61.128 84.507 60.592 84.995 60.24C85.483 59.88 86.135 59.7 86.951 59.7H89.603V66H88.823ZM84.215 66L85.943 63.576H86.831L85.139 66H84.215ZM88.823 63.48V60.192L88.979 60.444H86.975C86.391 60.444 85.935 60.556 85.607 60.78C85.287 61.004 85.127 61.368 85.127 61.872C85.127 62.808 85.723 63.276 86.915 63.276H88.979L88.823 63.48Z" fill="#646986"/>
</svg>
