<svg width="96" height="88" viewBox="0 0 96 88" fill="none" xmlns="http://www.w3.org/2000/svg">
<path d="M7.164 9L3.936 4.812L4.656 4.38L8.184 9H7.164ZM1.416 9V0.599999H2.28V9H1.416ZM2.016 5.148V4.368H4.644V5.148H2.016ZM4.728 4.896L3.912 4.752L7.044 0.599999H8.004L4.728 4.896ZM11.8665 9.06C11.2585 9.06 10.7105 8.924 10.2225 8.652C9.7425 8.372 9.3625 7.992 9.0825 7.512C8.8025 7.024 8.6625 6.468 8.6625 5.844C8.6625 5.212 8.8025 4.656 9.0825 4.176C9.3625 3.696 9.7425 3.32 10.2225 3.048C10.7025 2.776 11.2505 2.64 11.8665 2.64C12.4905 2.64 13.0425 2.776 13.5225 3.048C14.0105 3.32 14.3905 3.696 14.6625 4.176C14.9425 4.656 15.0825 5.212 15.0825 5.844C15.0825 6.468 14.9425 7.024 14.6625 7.512C14.3905 7.992 14.0105 8.372 13.5225 8.652C13.0345 8.924 12.4825 9.06 11.8665 9.06ZM11.8665 8.304C12.3225 8.304 12.7265 8.204 13.0785 8.004C13.4305 7.796 13.7065 7.508 13.9065 7.14C14.1145 6.764 14.2185 6.332 14.2185 5.844C14.2185 5.348 14.1145 4.916 13.9065 4.548C13.7065 4.18 13.4305 3.896 13.0785 3.696C12.7265 3.488 12.3265 3.384 11.8785 3.384C11.4305 3.384 11.0305 3.488 10.6785 3.696C10.3265 3.896 10.0465 4.18 9.8385 4.548C9.6305 4.916 9.5265 5.348 9.5265 5.844C9.5265 6.332 9.6305 6.764 9.8385 7.14C10.0465 7.508 10.3265 7.796 10.6785 8.004C11.0305 8.204 11.4265 8.304 11.8665 8.304ZM20.1554 9.06C19.6114 9.06 19.1194 8.936 18.6794 8.688C18.2394 8.432 17.8874 8.068 17.6234 7.596C17.3674 7.116 17.2394 6.532 17.2394 5.844C17.2394 5.156 17.3674 4.576 17.6234 4.104C17.8794 3.624 18.2274 3.26 18.6674 3.012C19.1074 2.764 19.6034 2.64 20.1554 2.64C20.7554 2.64 21.2914 2.776 21.7634 3.048C22.2434 3.312 22.6194 3.688 22.8914 4.176C23.1634 4.656 23.2994 5.212 23.2994 5.844C23.2994 6.484 23.1634 7.044 22.8914 7.524C22.6194 8.004 22.2434 8.38 21.7634 8.652C21.2914 8.924 20.7554 9.06 20.1554 9.06ZM16.9034 11.328V2.7H17.7194V4.596L17.6354 5.856L17.7554 7.128V11.328H16.9034ZM20.0954 8.304C20.5434 8.304 20.9434 8.204 21.2954 8.004C21.6474 7.796 21.9274 7.508 22.1354 7.14C22.3434 6.764 22.4474 6.332 22.4474 5.844C22.4474 5.356 22.3434 4.928 22.1354 4.56C21.9274 4.192 21.6474 3.904 21.2954 3.696C20.9434 3.488 20.5434 3.384 20.0954 3.384C19.6474 3.384 19.2434 3.488 18.8834 3.696C18.5314 3.904 18.2514 4.192 18.0434 4.56C17.8434 4.928 17.7434 5.356 17.7434 5.844C17.7434 6.332 17.8434 6.764 18.0434 7.14C18.2514 7.508 18.5314 7.796 18.8834 8.004C19.2434 8.204 19.6474 8.304 20.0954 8.304ZM25.13 9V2.7H30.794V9H29.942V3.216L30.158 3.444H25.766L25.982 3.216V9H25.13ZM33.3239 11.388C33.0279 11.388 32.7439 11.34 32.4719 11.244C32.2079 11.148 31.9799 11.004 31.7879 10.812L32.1839 10.176C32.3439 10.328 32.5159 10.444 32.6999 10.524C32.8919 10.612 33.1039 10.656 33.3359 10.656C33.6159 10.656 33.8559 10.576 34.0559 10.416C34.2639 10.264 34.4599 9.992 34.6439 9.6L35.0519 8.676L35.1479 8.544L37.7399 2.7H38.5799L35.4239 9.756C35.2479 10.164 35.0519 10.488 34.8359 10.728C34.6279 10.968 34.3999 11.136 34.1519 11.232C33.9039 11.336 33.6279 11.388 33.3239 11.388ZM35.0039 9.18L32.0999 2.7H32.9879L35.5559 8.484L35.0039 9.18ZM42.3715 9.06C41.7475 9.06 41.1875 8.924 40.6915 8.652C40.2035 8.372 39.8195 7.992 39.5395 7.512C39.2595 7.024 39.1195 6.468 39.1195 5.844C39.1195 5.212 39.2595 4.656 39.5395 4.176C39.8195 3.696 40.2035 3.32 40.6915 3.048C41.1875 2.776 41.7475 2.64 42.3715 2.64C42.9075 2.64 43.3915 2.744 43.8235 2.952C44.2555 3.16 44.5955 3.472 44.8435 3.888L44.2075 4.32C43.9915 4 43.7235 3.764 43.4035 3.612C43.0835 3.46 42.7355 3.384 42.3595 3.384C41.9115 3.384 41.5075 3.488 41.1475 3.696C40.7875 3.896 40.5035 4.18 40.2955 4.548C40.0875 4.916 39.9835 5.348 39.9835 5.844C39.9835 6.34 40.0875 6.772 40.2955 7.14C40.5035 7.508 40.7875 7.796 41.1475 8.004C41.5075 8.204 41.9115 8.304 42.3595 8.304C42.7355 8.304 43.0835 8.228 43.4035 8.076C43.7235 7.924 43.9915 7.692 44.2075 7.38L44.8435 7.812C44.5955 8.22 44.2555 8.532 43.8235 8.748C43.3915 8.956 42.9075 9.06 42.3715 9.06ZM46.6236 3.948C46.4476 3.948 46.2956 3.884 46.1676 3.756C46.0476 3.628 45.9876 3.472 45.9876 3.288C45.9876 3.096 46.0476 2.94 46.1676 2.82C46.2956 2.7 46.4476 2.64 46.6236 2.64C46.7996 2.64 46.9476 2.7 47.0676 2.82C47.1956 2.94 47.2596 3.096 47.2596 3.288C47.2596 3.472 47.1956 3.628 47.0676 3.756C46.9476 3.884 46.7996 3.948 46.6236 3.948ZM46.6236 9.06C46.4476 9.06 46.2956 8.996 46.1676 8.868C46.0476 8.74 45.9876 8.584 45.9876 8.4C45.9876 8.208 46.0476 8.052 46.1676 7.932C46.2956 7.812 46.4476 7.752 46.6236 7.752C46.7996 7.752 46.9476 7.812 47.0676 7.932C47.1956 8.052 47.2596 8.208 47.2596 8.4C47.2596 8.584 47.1956 8.74 47.0676 8.868C46.9476 8.996 46.7996 9.06 46.6236 9.06ZM1.416 28V19.6H4.908C5.796 19.6 6.492 19.784 6.996 20.152C7.508 20.512 7.764 21.044 7.764 21.748C7.764 22.444 7.52 22.972 7.032 23.332C6.544 23.684 5.904 23.86 5.112 23.86L5.316 23.56C6.252 23.56 6.964 23.744 7.452 24.112C7.94 24.48 8.184 25.02 8.184 25.732C8.184 26.452 7.928 27.012 7.416 27.412C6.912 27.804 6.152 28 5.136 28H1.416ZM2.292 27.292H5.136C5.848 27.292 6.388 27.16 6.756 26.896C7.124 26.632 7.308 26.224 7.308 25.672C7.308 25.128 7.124 24.728 6.756 24.472C6.388 24.216 5.848 24.088 5.136 24.088H2.292V27.292ZM2.292 23.404H4.86C5.508 23.404 6.004 23.276 6.348 23.02C6.7 22.756 6.876 22.368 6.876 21.856C6.876 21.344 6.7 20.96 6.348 20.704C6.004 20.44 5.508 20.308 4.86 20.308H2.292V23.404ZM9.04828 27.988L9.10828 27.256C9.16428 27.264 9.21628 27.276 9.26428 27.292C9.32028 27.3 9.36828 27.304 9.40828 27.304C9.66428 27.304 9.86828 27.208 10.0203 27.016C10.1803 26.824 10.3003 26.568 10.3803 26.248C10.4603 25.928 10.5163 25.568 10.5483 25.168C10.5803 24.76 10.6083 24.352 10.6323 23.944L10.7403 21.7H15.3603V28H14.5083V22.192L14.7243 22.444H11.2923L11.4963 22.18L11.4003 24.004C11.3763 24.548 11.3323 25.068 11.2683 25.564C11.2123 26.06 11.1203 26.496 10.9923 26.872C10.8723 27.248 10.7043 27.544 10.4883 27.76C10.2723 27.968 9.99628 28.072 9.66028 28.072C9.56428 28.072 9.46428 28.064 9.36028 28.048C9.26428 28.032 9.16028 28.012 9.04828 27.988ZM21.6943 28V26.608L21.6583 26.38V24.052C21.6583 23.516 21.5063 23.104 21.2023 22.816C20.9063 22.528 20.4623 22.384 19.8703 22.384C19.4623 22.384 19.0743 22.452 18.7063 22.588C18.3383 22.724 18.0263 22.904 17.7703 23.128L17.3863 22.492C17.7063 22.22 18.0903 22.012 18.5383 21.868C18.9863 21.716 19.4583 21.64 19.9543 21.64C20.7703 21.64 21.3983 21.844 21.8383 22.252C22.2863 22.652 22.5103 23.264 22.5103 24.088V28H21.6943ZM19.5223 28.06C19.0503 28.06 18.6383 27.984 18.2863 27.832C17.9423 27.672 17.6783 27.456 17.4943 27.184C17.3103 26.904 17.2183 26.584 17.2183 26.224C17.2183 25.896 17.2943 25.6 17.4463 25.336C17.6063 25.064 17.8623 24.848 18.2143 24.688C18.5743 24.52 19.0543 24.436 19.6543 24.436H21.8263V25.072H19.6783C19.0703 25.072 18.6463 25.18 18.4063 25.396C18.1743 25.612 18.0583 25.88 18.0583 26.2C18.0583 26.56 18.1983 26.848 18.4783 27.064C18.7583 27.28 19.1503 27.388 19.6543 27.388C20.1343 27.388 20.5463 27.28 20.8903 27.064C21.2423 26.84 21.4983 26.52 21.6583 26.104L21.8503 26.692C21.6903 27.108 21.4103 27.44 21.0103 27.688C20.6183 27.936 20.1223 28.06 19.5223 28.06ZM24.7784 28V21.7H29.2424V22.444H25.4144L25.6304 22.228V28H24.7784ZM32.7728 28.06C32.1648 28.06 31.6168 27.924 31.1288 27.652C30.6488 27.372 30.2688 26.992 29.9888 26.512C29.7088 26.024 29.5688 25.468 29.5688 24.844C29.5688 24.212 29.7088 23.656 29.9888 23.176C30.2688 22.696 30.6488 22.32 31.1288 22.048C31.6088 21.776 32.1568 21.64 32.7728 21.64C33.3968 21.64 33.9488 21.776 34.4288 22.048C34.9168 22.32 35.2968 22.696 35.5688 23.176C35.8488 23.656 35.9888 24.212 35.9888 24.844C35.9888 25.468 35.8488 26.024 35.5688 26.512C35.2968 26.992 34.9168 27.372 34.4288 27.652C33.9408 27.924 33.3888 28.06 32.7728 28.06ZM32.7728 27.304C33.2288 27.304 33.6328 27.204 33.9848 27.004C34.3368 26.796 34.6128 26.508 34.8128 26.14C35.0208 25.764 35.1248 25.332 35.1248 24.844C35.1248 24.348 35.0208 23.916 34.8128 23.548C34.6128 23.18 34.3368 22.896 33.9848 22.696C33.6328 22.488 33.2328 22.384 32.7848 22.384C32.3368 22.384 31.9368 22.488 31.5848 22.696C31.2328 22.896 30.9528 23.18 30.7448 23.548C30.5368 23.916 30.4328 24.348 30.4328 24.844C30.4328 25.332 30.5368 25.764 30.7448 26.14C30.9528 26.508 31.2328 26.796 31.5848 27.004C31.9368 27.204 32.3328 27.304 32.7728 27.304ZM39.4548 28.072C39.9748 28.072 40.4428 27.992 40.8588 27.832C41.2828 27.672 41.6188 27.452 41.8668 27.172C42.1148 26.884 42.2388 26.552 42.2388 26.176C42.2388 25.696 42.0348 25.316 41.6268 25.036C41.2268 24.756 40.6668 24.616 39.9468 24.616L39.9108 24.844C40.3188 24.844 40.6828 24.78 41.0028 24.652C41.3228 24.524 41.5788 24.344 41.7708 24.112C41.9628 23.88 42.0588 23.608 42.0588 23.296C42.0588 22.944 41.9388 22.644 41.6988 22.396C41.4588 22.14 41.1348 21.944 40.7268 21.808C40.3268 21.672 39.8748 21.612 39.3708 21.628C39.0028 21.628 38.6348 21.68 38.2668 21.784C37.9068 21.88 37.5428 22.024 37.1748 22.216L37.4148 22.876C37.7428 22.708 38.0748 22.584 38.4108 22.504C38.7468 22.416 39.0708 22.368 39.3828 22.36C39.7268 22.36 40.0348 22.4 40.3068 22.48C40.5788 22.56 40.7908 22.68 40.9428 22.84C41.1028 23 41.1828 23.192 41.1828 23.416C41.1828 23.624 41.1148 23.804 40.9788 23.956C40.8508 24.108 40.6668 24.224 40.4268 24.304C40.1868 24.384 39.9108 24.424 39.5988 24.424H38.5788V25.048H39.6588C40.1868 25.048 40.6028 25.144 40.9068 25.336C41.2108 25.52 41.3628 25.78 41.3628 26.116C41.3628 26.348 41.2828 26.556 41.1228 26.74C40.9628 26.924 40.7388 27.068 40.4508 27.172C40.1628 27.276 39.8228 27.332 39.4308 27.34C39.0388 27.34 38.6428 27.284 38.2428 27.172C37.8428 27.052 37.4908 26.88 37.1868 26.656L36.9108 27.292C37.2548 27.556 37.6508 27.752 38.0988 27.88C38.5468 28.008 38.9988 28.072 39.4548 28.072ZM48.0849 28V26.608L48.0489 26.38V24.052C48.0489 23.516 47.8969 23.104 47.5929 22.816C47.2969 22.528 46.8529 22.384 46.2609 22.384C45.8529 22.384 45.4649 22.452 45.0969 22.588C44.7289 22.724 44.4169 22.904 44.1609 23.128L43.7769 22.492C44.0969 22.22 44.4809 22.012 44.9289 21.868C45.3769 21.716 45.8489 21.64 46.3449 21.64C47.1609 21.64 47.7889 21.844 48.2289 22.252C48.6769 22.652 48.9009 23.264 48.9009 24.088V28H48.0849ZM45.9129 28.06C45.4409 28.06 45.0289 27.984 44.6769 27.832C44.3329 27.672 44.0689 27.456 43.8849 27.184C43.7009 26.904 43.6089 26.584 43.6089 26.224C43.6089 25.896 43.6849 25.6 43.8369 25.336C43.9969 25.064 44.2529 24.848 44.6049 24.688C44.9649 24.52 45.4449 24.436 46.0449 24.436H48.2169V25.072H46.0689C45.4609 25.072 45.0369 25.18 44.7969 25.396C44.5649 25.612 44.4489 25.88 44.4489 26.2C44.4489 26.56 44.5889 26.848 44.8689 27.064C45.1489 27.28 45.5409 27.388 46.0449 27.388C46.5249 27.388 46.9369 27.28 47.2809 27.064C47.6329 26.84 47.8889 26.52 48.0489 26.104L48.2409 26.692C48.0809 27.108 47.8009 27.44 47.4009 27.688C47.0089 27.936 46.5129 28.06 45.9129 28.06ZM55.309 27.256L55.117 27.484V21.7H55.969V27.484L55.741 27.256H59.257L59.029 27.484V21.7H59.881V28H51.169V21.7H52.021V27.484L51.805 27.256H55.309ZM60.049 29.38V27.772L60.265 28H58.981V27.256H60.853V29.38H60.049ZM62.3018 28V21.7H63.1538V26.704L67.3658 21.7H68.1218V28H67.2698V22.984L63.0698 28H62.3018ZM71.7636 28V22.216L71.9796 22.444H69.3756V21.7H75.0036V22.444H72.3996L72.6156 22.216V28H71.7636ZM80.1474 28V26.608L80.1114 26.38V24.052C80.1114 23.516 79.9594 23.104 79.6554 22.816C79.3594 22.528 78.9154 22.384 78.3234 22.384C77.9154 22.384 77.5274 22.452 77.1594 22.588C76.7914 22.724 76.4794 22.904 76.2234 23.128L75.8394 22.492C76.1594 22.22 76.5434 22.012 76.9914 21.868C77.4394 21.716 77.9114 21.64 78.4074 21.64C79.2234 21.64 79.8514 21.844 80.2914 22.252C80.7394 22.652 80.9634 23.264 80.9634 24.088V28H80.1474ZM77.9754 28.06C77.5034 28.06 77.0914 27.984 76.7394 27.832C76.3954 27.672 76.1314 27.456 75.9474 27.184C75.7634 26.904 75.6714 26.584 75.6714 26.224C75.6714 25.896 75.7474 25.6 75.8994 25.336C76.0594 25.064 76.3154 24.848 76.6674 24.688C77.0274 24.52 77.5074 24.436 78.1074 24.436H80.2794V25.072H78.1314C77.5234 25.072 77.0994 25.18 76.8594 25.396C76.6274 25.612 76.5114 25.88 76.5114 26.2C76.5114 26.56 76.6514 26.848 76.9314 27.064C77.2114 27.28 77.6034 27.388 78.1074 27.388C78.5874 27.388 78.9994 27.28 79.3434 27.064C79.6954 26.84 79.9514 26.52 80.1114 26.104L80.3034 26.692C80.1434 27.108 79.8634 27.44 79.4634 27.688C79.0714 27.936 78.5754 28.06 77.9754 28.06ZM83.2915 22.948C83.1155 22.948 82.9635 22.884 82.8355 22.756C82.7155 22.628 82.6555 22.472 82.6555 22.288C82.6555 22.096 82.7155 21.94 82.8355 21.82C82.9635 21.7 83.1155 21.64 83.2915 21.64C83.4675 21.64 83.6155 21.7 83.7355 21.82C83.8635 21.94 83.9275 22.096 83.9275 22.288C83.9275 22.472 83.8635 22.628 83.7355 22.756C83.6155 22.884 83.4675 22.948 83.2915 22.948ZM83.2915 28.06C83.1155 28.06 82.9635 27.996 82.8355 27.868C82.7155 27.74 82.6555 27.584 82.6555 27.4C82.6555 27.208 82.7155 27.052 82.8355 26.932C82.9635 26.812 83.1155 26.752 83.2915 26.752C83.4675 26.752 83.6155 26.812 83.7355 26.932C83.8635 27.052 83.9275 27.208 83.9275 27.4C83.9275 27.584 83.8635 27.74 83.7355 27.868C83.6155 27.996 83.4675 28.06 83.2915 28.06ZM1.416 47V38.6H2.292V46.232H7.368V38.6H8.244V47H1.416ZM8.748 48.968V46.76L8.976 47H7.368V46.232H9.576V48.968H8.748ZM11.1378 47V40.7H13.9218C14.6338 40.7 15.1938 40.836 15.6018 41.108C16.0178 41.38 16.2258 41.78 16.2258 42.308C16.2258 42.82 16.0298 43.216 15.6378 43.496C15.2458 43.768 14.7298 43.904 14.0898 43.904L14.2578 43.652C15.0098 43.652 15.5618 43.792 15.9138 44.072C16.2658 44.352 16.4418 44.756 16.4418 45.284C16.4418 45.828 16.2418 46.252 15.8418 46.556C15.4498 46.852 14.8378 47 14.0058 47H11.1378ZM11.9658 46.328H13.9698C14.5058 46.328 14.9098 46.244 15.1818 46.076C15.4618 45.9 15.6018 45.62 15.6018 45.236C15.6018 44.852 15.4778 44.572 15.2298 44.396C14.9818 44.22 14.5898 44.132 14.0538 44.132H11.9658V46.328ZM11.9658 43.496H13.8618C14.3498 43.496 14.7218 43.404 14.9778 43.22C15.2418 43.036 15.3738 42.768 15.3738 42.416C15.3738 42.064 15.2418 41.8 14.9778 41.624C14.7218 41.448 14.3498 41.36 13.8618 41.36H11.9658V43.496ZM21.1386 47.06C20.4826 47.06 19.9066 46.924 19.4106 46.652C18.9146 46.372 18.5266 45.992 18.2466 45.512C17.9666 45.024 17.8266 44.468 17.8266 43.844C17.8266 43.22 17.9586 42.668 18.2226 42.188C18.4946 41.708 18.8626 41.332 19.3266 41.06C19.7986 40.78 20.3266 40.64 20.9106 40.64C21.5026 40.64 22.0266 40.776 22.4826 41.048C22.9466 41.312 23.3106 41.688 23.5746 42.176C23.8386 42.656 23.9706 43.212 23.9706 43.844C23.9706 43.884 23.9666 43.928 23.9586 43.976C23.9586 44.016 23.9586 44.06 23.9586 44.108H18.4746V43.472H23.5026L23.1666 43.724C23.1666 43.268 23.0666 42.864 22.8666 42.512C22.6746 42.152 22.4106 41.872 22.0746 41.672C21.7386 41.472 21.3506 41.372 20.9106 41.372C20.4786 41.372 20.0906 41.472 19.7466 41.672C19.4026 41.872 19.1346 42.152 18.9426 42.512C18.7506 42.872 18.6546 43.284 18.6546 43.748V43.88C18.6546 44.36 18.7586 44.784 18.9666 45.152C19.1826 45.512 19.4786 45.796 19.8546 46.004C20.2386 46.204 20.6746 46.304 21.1626 46.304C21.5466 46.304 21.9026 46.236 22.2306 46.1C22.5666 45.964 22.8546 45.756 23.0946 45.476L23.5746 46.028C23.2946 46.364 22.9426 46.62 22.5186 46.796C22.1026 46.972 21.6426 47.06 21.1386 47.06ZM26.7753 47V41.216L26.9913 41.444H24.3873V40.7H30.0153V41.444H27.4113L27.6273 41.216V47H26.7753ZM31.3072 41.948C31.1312 41.948 30.9792 41.884 30.8512 41.756C30.7312 41.628 30.6712 41.472 30.6712 41.288C30.6712 41.096 30.7312 40.94 30.8512 40.82C30.9792 40.7 31.1312 40.64 31.3072 40.64C31.4832 40.64 31.6312 40.7 31.7512 40.82C31.8792 40.94 31.9432 41.096 31.9432 41.288C31.9432 41.472 31.8792 41.628 31.7512 41.756C31.6312 41.884 31.4832 41.948 31.3072 41.948ZM31.3072 47.06C31.1312 47.06 30.9792 46.996 30.8512 46.868C30.7312 46.74 30.6712 46.584 30.6712 46.4C30.6712 46.208 30.7312 46.052 30.8512 45.932C30.9792 45.812 31.1312 45.752 31.3072 45.752C31.4832 45.752 31.6312 45.812 31.7512 45.932C31.8792 46.052 31.9432 46.208 31.9432 46.4C31.9432 46.584 31.8792 46.74 31.7512 46.868C31.6312 46.996 31.4832 47.06 31.3072 47.06ZM3.084 66V58.128L3.324 58.368H0.132V57.6H6.912V58.368H3.732L3.96 58.128V66H3.084ZM8.10263 66V59.7H8.95463V64.704L13.1666 59.7H13.9226V66H13.0706V60.984L8.87063 66H8.10263ZM16.3643 66V59.7H22.0283V66H21.1763V60.216L21.3923 60.444H17.0003L17.2163 60.216V66H16.3643ZM28.4669 63.12V62.472H32.1269V63.12H28.4669ZM29.3069 59.64C29.9469 59.64 30.5189 59.78 31.0229 60.06C31.5269 60.332 31.9229 60.712 32.2109 61.2C32.5069 61.68 32.6549 62.228 32.6549 62.844C32.6549 63.46 32.5069 64.012 32.2109 64.5C31.9229 64.988 31.5269 65.372 31.0229 65.652C30.5189 65.932 29.9469 66.072 29.3069 66.072C28.7869 66.072 28.3029 65.992 27.8549 65.832C27.4149 65.664 27.0429 65.424 26.7389 65.112L27.2429 64.608C27.5149 64.864 27.8229 65.056 28.1669 65.184C28.5109 65.304 28.8789 65.364 29.2709 65.364C29.7669 65.364 30.2069 65.256 30.5909 65.04C30.9829 64.816 31.2909 64.516 31.5149 64.14C31.7389 63.756 31.8509 63.324 31.8509 62.844C31.8509 62.364 31.7389 61.936 31.5149 61.56C31.2909 61.176 30.9829 60.876 30.5909 60.66C30.2069 60.444 29.7669 60.336 29.2709 60.336C28.8789 60.336 28.5109 60.4 28.1669 60.528C27.8229 60.648 27.5149 60.836 27.2429 61.092L26.7389 60.6C27.0429 60.28 27.4149 60.04 27.8549 59.88C28.3029 59.72 28.7869 59.64 29.3069 59.64ZM39.0664 66L36.4744 62.88L37.1824 62.46L40.0744 66H39.0664ZM34.4464 66V59.7H35.2984V66H34.4464ZM35.0344 63.192V62.46H37.0624V63.192H35.0344ZM37.2544 62.94L36.4624 62.82L38.9704 59.7H39.8944L37.2544 62.94ZM44.671 66.06C44.127 66.06 43.635 65.936 43.195 65.688C42.755 65.432 42.403 65.068 42.139 64.596C41.883 64.116 41.755 63.532 41.755 62.844C41.755 62.156 41.883 61.576 42.139 61.104C42.395 60.624 42.743 60.26 43.183 60.012C43.623 59.764 44.119 59.64 44.671 59.64C45.271 59.64 45.807 59.776 46.279 60.048C46.759 60.312 47.135 60.688 47.407 61.176C47.679 61.656 47.815 62.212 47.815 62.844C47.815 63.484 47.679 64.044 47.407 64.524C47.135 65.004 46.759 65.38 46.279 65.652C45.807 65.924 45.271 66.06 44.671 66.06ZM41.419 68.328V59.7H42.235V61.596L42.151 62.856L42.271 64.128V68.328H41.419ZM44.611 65.304C45.059 65.304 45.459 65.204 45.811 65.004C46.163 64.796 46.443 64.508 46.651 64.14C46.859 63.764 46.963 63.332 46.963 62.844C46.963 62.356 46.859 61.928 46.651 61.56C46.443 61.192 46.163 60.904 45.811 60.696C45.459 60.488 45.059 60.384 44.611 60.384C44.163 60.384 43.759 60.488 43.399 60.696C43.047 60.904 42.767 61.192 42.559 61.56C42.359 61.928 42.259 62.356 42.259 62.844C42.259 63.332 42.359 63.764 42.559 64.14C42.767 64.508 43.047 64.796 43.399 65.004C43.759 65.204 44.163 65.304 44.611 65.304ZM53.5224 66V64.608L53.4864 64.38V62.052C53.4864 61.516 53.3344 61.104 53.0304 60.816C52.7344 60.528 52.2904 60.384 51.6984 60.384C51.2904 60.384 50.9024 60.452 50.5344 60.588C50.1664 60.724 49.8544 60.904 49.5984 61.128L49.2144 60.492C49.5344 60.22 49.9184 60.012 50.3664 59.868C50.8144 59.716 51.2864 59.64 51.7824 59.64C52.5984 59.64 53.2264 59.844 53.6664 60.252C54.1144 60.652 54.3384 61.264 54.3384 62.088V66H53.5224ZM51.3504 66.06C50.8784 66.06 50.4664 65.984 50.1144 65.832C49.7704 65.672 49.5064 65.456 49.3224 65.184C49.1384 64.904 49.0464 64.584 49.0464 64.224C49.0464 63.896 49.1224 63.6 49.2744 63.336C49.4344 63.064 49.6904 62.848 50.0424 62.688C50.4024 62.52 50.8824 62.436 51.4824 62.436H53.6544V63.072H51.5064C50.8984 63.072 50.4744 63.18 50.2344 63.396C50.0024 63.612 49.8864 63.88 49.8864 64.2C49.8864 64.56 50.0264 64.848 50.3064 65.064C50.5864 65.28 50.9784 65.388 51.4824 65.388C51.9624 65.388 52.3744 65.28 52.7184 65.064C53.0704 64.84 53.3264 64.52 53.4864 64.104L53.6784 64.692C53.5184 65.108 53.2384 65.44 52.8384 65.688C52.4464 65.936 51.9504 66.06 51.3504 66.06ZM56.6065 66V59.7H57.4585V62.484H61.4305V59.7H62.2825V66H61.4305V63.216H57.4585V66H56.6065ZM68.6162 66V64.608L68.5802 64.38V62.052C68.5802 61.516 68.4282 61.104 68.1242 60.816C67.8282 60.528 67.3842 60.384 66.7922 60.384C66.3842 60.384 65.9962 60.452 65.6282 60.588C65.2602 60.724 64.9482 60.904 64.6922 61.128L64.3082 60.492C64.6282 60.22 65.0122 60.012 65.4602 59.868C65.9082 59.716 66.3802 59.64 66.8762 59.64C67.6922 59.64 68.3202 59.844 68.7602 60.252C69.2082 60.652 69.4322 61.264 69.4322 62.088V66H68.6162ZM66.4442 66.06C65.9722 66.06 65.5602 65.984 65.2082 65.832C64.8642 65.672 64.6002 65.456 64.4162 65.184C64.2322 64.904 64.1402 64.584 64.1402 64.224C64.1402 63.896 64.2162 63.6 64.3682 63.336C64.5282 63.064 64.7842 62.848 65.1362 62.688C65.4962 62.52 65.9762 62.436 66.5762 62.436H68.7482V63.072H66.6002C65.9922 63.072 65.5682 63.18 65.3282 63.396C65.0962 63.612 64.9802 63.88 64.9802 64.2C64.9802 64.56 65.1202 64.848 65.4002 65.064C65.6802 65.28 66.0722 65.388 66.5762 65.388C67.0562 65.388 67.4682 65.28 67.8122 65.064C68.1642 64.84 68.4202 64.52 68.5802 64.104L68.7722 64.692C68.6122 65.108 68.3322 65.44 67.9322 65.688C67.5402 65.936 67.0442 66.06 66.4442 66.06ZM71.7603 60.948C71.5843 60.948 71.4323 60.884 71.3043 60.756C71.1843 60.628 71.1243 60.472 71.1243 60.288C71.1243 60.096 71.1843 59.94 71.3043 59.82C71.4323 59.7 71.5843 59.64 71.7603 59.64C71.9363 59.64 72.0843 59.7 72.2043 59.82C72.3323 59.94 72.3963 60.096 72.3963 60.288C72.3963 60.472 72.3323 60.628 72.2043 60.756C72.0843 60.884 71.9363 60.948 71.7603 60.948ZM71.7603 66.06C71.5843 66.06 71.4323 65.996 71.3043 65.868C71.1843 65.74 71.1243 65.584 71.1243 65.4C71.1243 65.208 71.1843 65.052 71.3043 64.932C71.4323 64.812 71.5843 64.752 71.7603 64.752C71.9363 64.752 72.0843 64.812 72.2043 64.932C72.3323 65.052 72.3963 65.208 72.3963 65.4C72.3963 65.584 72.3323 65.74 72.2043 65.868C72.0843 65.996 71.9363 66.06 71.7603 66.06ZM1.416 85V76.6H4.56C5.272 76.6 5.884 76.716 6.396 76.948C6.908 77.172 7.3 77.5 7.572 77.932C7.852 78.356 7.992 78.872 7.992 79.48C7.992 80.072 7.852 80.584 7.572 81.016C7.3 81.44 6.908 81.768 6.396 82C5.884 82.232 5.272 82.348 4.56 82.348H1.908L2.304 81.928V85H1.416ZM2.304 82L1.908 81.568H4.536C5.376 81.568 6.012 81.388 6.444 81.028C6.884 80.66 7.104 80.144 7.104 79.48C7.104 78.808 6.884 78.288 6.444 77.92C6.012 77.552 5.376 77.368 4.536 77.368H1.908L2.304 76.948V82ZM13.456 85V83.608L13.42 83.38V81.052C13.42 80.516 13.268 80.104 12.964 79.816C12.668 79.528 12.224 79.384 11.632 79.384C11.224 79.384 10.836 79.452 10.468 79.588C10.1 79.724 9.78803 79.904 9.53203 80.128L9.14803 79.492C9.46803 79.22 9.85203 79.012 10.3 78.868C10.748 78.716 11.22 78.64 11.716 78.64C12.532 78.64 13.16 78.844 13.6 79.252C14.048 79.652 14.272 80.264 14.272 81.088V85H13.456ZM11.284 85.06C10.812 85.06 10.4 84.984 10.048 84.832C9.70403 84.672 9.44003 84.456 9.25603 84.184C9.07203 83.904 8.98003 83.584 8.98003 83.224C8.98003 82.896 9.05603 82.6 9.20803 82.336C9.36803 82.064 9.62403 81.848 9.97603 81.688C10.336 81.52 10.816 81.436 11.416 81.436H13.588V82.072H11.44C10.832 82.072 10.408 82.18 10.168 82.396C9.93603 82.612 9.82003 82.88 9.82003 83.2C9.82003 83.56 9.96003 83.848 10.24 84.064C10.52 84.28 10.912 84.388 11.416 84.388C11.896 84.388 12.308 84.28 12.652 84.064C13.004 83.84 13.26 83.52 13.42 83.104L13.612 83.692C13.452 84.108 13.172 84.44 12.772 84.688C12.38 84.936 11.884 85.06 11.284 85.06ZM18.1032 85.072C18.6232 85.072 19.0912 84.992 19.5072 84.832C19.9312 84.672 20.2672 84.452 20.5152 84.172C20.7632 83.884 20.8872 83.552 20.8872 83.176C20.8872 82.696 20.6832 82.316 20.2752 82.036C19.8752 81.756 19.3152 81.616 18.5952 81.616L18.5592 81.844C18.9672 81.844 19.3312 81.78 19.6512 81.652C19.9712 81.524 20.2272 81.344 20.4192 81.112C20.6112 80.88 20.7072 80.608 20.7072 80.296C20.7072 79.944 20.5872 79.644 20.3472 79.396C20.1072 79.14 19.7832 78.944 19.3752 78.808C18.9752 78.672 18.5232 78.612 18.0192 78.628C17.6512 78.628 17.2832 78.68 16.9152 78.784C16.5552 78.88 16.1912 79.024 15.8232 79.216L16.0632 79.876C16.3912 79.708 16.7232 79.584 17.0592 79.504C17.3952 79.416 17.7192 79.368 18.0312 79.36C18.3752 79.36 18.6832 79.4 18.9552 79.48C19.2272 79.56 19.4392 79.68 19.5912 79.84C19.7512 80 19.8312 80.192 19.8312 80.416C19.8312 80.624 19.7632 80.804 19.6272 80.956C19.4992 81.108 19.3152 81.224 19.0752 81.304C18.8352 81.384 18.5592 81.424 18.2472 81.424H17.2272V82.048H18.3072C18.8352 82.048 19.2512 82.144 19.5552 82.336C19.8592 82.52 20.0112 82.78 20.0112 83.116C20.0112 83.348 19.9312 83.556 19.7712 83.74C19.6112 83.924 19.3872 84.068 19.0992 84.172C18.8112 84.276 18.4712 84.332 18.0792 84.34C17.6872 84.34 17.2912 84.284 16.8912 84.172C16.4912 84.052 16.1392 83.88 15.8352 83.656L15.5592 84.292C15.9032 84.556 16.2992 84.752 16.7472 84.88C17.1952 85.008 17.6472 85.072 18.1032 85.072ZM22.8214 85V78.7H23.6854L26.5414 83.536H26.1814L29.0854 78.7H29.8774V85H29.0974V79.672L29.2534 79.744L26.5414 84.232H26.1574L23.4214 79.696L23.6014 79.66V85H22.8214ZM35.0018 85.06C34.3458 85.06 33.7698 84.924 33.2738 84.652C32.7778 84.372 32.3898 83.992 32.1098 83.512C31.8298 83.024 31.6898 82.468 31.6898 81.844C31.6898 81.22 31.8218 80.668 32.0858 80.188C32.3578 79.708 32.7258 79.332 33.1898 79.06C33.6618 78.78 34.1898 78.64 34.7738 78.64C35.3658 78.64 35.8898 78.776 36.3458 79.048C36.8098 79.312 37.1738 79.688 37.4378 80.176C37.7018 80.656 37.8338 81.212 37.8338 81.844C37.8338 81.884 37.8298 81.928 37.8218 81.976C37.8218 82.016 37.8218 82.06 37.8218 82.108H32.3378V81.472H37.3658L37.0298 81.724C37.0298 81.268 36.9298 80.864 36.7298 80.512C36.5378 80.152 36.2738 79.872 35.9378 79.672C35.6018 79.472 35.2138 79.372 34.7738 79.372C34.3418 79.372 33.9538 79.472 33.6098 79.672C33.2658 79.872 32.9978 80.152 32.8058 80.512C32.6138 80.872 32.5178 81.284 32.5178 81.748V81.88C32.5178 82.36 32.6218 82.784 32.8298 83.152C33.0458 83.512 33.3418 83.796 33.7178 84.004C34.1018 84.204 34.5378 84.304 35.0258 84.304C35.4098 84.304 35.7658 84.236 36.0938 84.1C36.4298 83.964 36.7178 83.756 36.9578 83.476L37.4378 84.028C37.1578 84.364 36.8058 84.62 36.3818 84.796C35.9658 84.972 35.5058 85.06 35.0018 85.06ZM42.9718 85.06C42.4278 85.06 41.9358 84.936 41.4958 84.688C41.0558 84.432 40.7038 84.068 40.4398 83.596C40.1838 83.116 40.0558 82.532 40.0558 81.844C40.0558 81.156 40.1838 80.576 40.4398 80.104C40.6958 79.624 41.0438 79.26 41.4838 79.012C41.9238 78.764 42.4198 78.64 42.9718 78.64C43.5718 78.64 44.1078 78.776 44.5798 79.048C45.0598 79.312 45.4358 79.688 45.7078 80.176C45.9798 80.656 46.1158 81.212 46.1158 81.844C46.1158 82.484 45.9798 83.044 45.7078 83.524C45.4358 84.004 45.0598 84.38 44.5798 84.652C44.1078 84.924 43.5718 85.06 42.9718 85.06ZM39.7198 87.328V78.7H40.5358V80.596L40.4518 81.856L40.5718 83.128V87.328H39.7198ZM42.9118 84.304C43.3598 84.304 43.7598 84.204 44.1118 84.004C44.4638 83.796 44.7438 83.508 44.9518 83.14C45.1598 82.764 45.2638 82.332 45.2638 81.844C45.2638 81.356 45.1598 80.928 44.9518 80.56C44.7438 80.192 44.4638 79.904 44.1118 79.696C43.7598 79.488 43.3598 79.384 42.9118 79.384C42.4638 79.384 42.0598 79.488 41.6998 79.696C41.3478 79.904 41.0678 80.192 40.8598 80.56C40.6598 80.928 40.5598 81.356 40.5598 81.844C40.5598 82.332 40.6598 82.764 40.8598 83.14C41.0678 83.508 41.3478 83.796 41.6998 84.004C42.0598 84.204 42.4638 84.304 42.9118 84.304ZM51.963 82.12V81.472H55.623V82.12H51.963ZM52.803 78.64C53.443 78.64 54.015 78.78 54.519 79.06C55.023 79.332 55.419 79.712 55.707 80.2C56.003 80.68 56.151 81.228 56.151 81.844C56.151 82.46 56.003 83.012 55.707 83.5C55.419 83.988 55.023 84.372 54.519 84.652C54.015 84.932 53.443 85.072 52.803 85.072C52.283 85.072 51.799 84.992 51.351 84.832C50.911 84.664 50.539 84.424 50.235 84.112L50.739 83.608C51.011 83.864 51.319 84.056 51.663 84.184C52.007 84.304 52.375 84.364 52.767 84.364C53.263 84.364 53.703 84.256 54.087 84.04C54.479 83.816 54.787 83.516 55.011 83.14C55.235 82.756 55.347 82.324 55.347 81.844C55.347 81.364 55.235 80.936 55.011 80.56C54.787 80.176 54.479 79.876 54.087 79.66C53.703 79.444 53.263 79.336 52.767 79.336C52.375 79.336 52.007 79.4 51.663 79.528C51.319 79.648 51.011 79.836 50.739 80.092L50.235 79.6C50.539 79.28 50.911 79.04 51.351 78.88C51.799 78.72 52.283 78.64 52.803 78.64ZM62.5625 85L59.9705 81.88L60.6785 81.46L63.5705 85H62.5625ZM57.9425 85V78.7H58.7945V85H57.9425ZM58.5305 82.192V81.46H60.5585V82.192H58.5305ZM60.7505 81.94L59.9585 81.82L62.4665 78.7H63.3905L60.7505 81.94ZM68.1671 85.06C67.6231 85.06 67.1311 84.936 66.6911 84.688C66.2511 84.432 65.8991 84.068 65.6351 83.596C65.3791 83.116 65.2511 82.532 65.2511 81.844C65.2511 81.156 65.3791 80.576 65.6351 80.104C65.8911 79.624 66.2391 79.26 66.6791 79.012C67.1191 78.764 67.6151 78.64 68.1671 78.64C68.7671 78.64 69.3031 78.776 69.7751 79.048C70.2551 79.312 70.6311 79.688 70.9031 80.176C71.1751 80.656 71.3111 81.212 71.3111 81.844C71.3111 82.484 71.1751 83.044 70.9031 83.524C70.6311 84.004 70.2551 84.38 69.7751 84.652C69.3031 84.924 68.7671 85.06 68.1671 85.06ZM64.9151 87.328V78.7H65.7311V80.596L65.6471 81.856L65.7671 83.128V87.328H64.9151ZM68.1071 84.304C68.5551 84.304 68.9551 84.204 69.3071 84.004C69.6591 83.796 69.9391 83.508 70.1471 83.14C70.3551 82.764 70.4591 82.332 70.4591 81.844C70.4591 81.356 70.3551 80.928 70.1471 80.56C69.9391 80.192 69.6591 79.904 69.3071 79.696C68.9551 79.488 68.5551 79.384 68.1071 79.384C67.6591 79.384 67.2551 79.488 66.8951 79.696C66.5431 79.904 66.2631 80.192 66.0551 80.56C65.8551 80.928 65.7551 81.356 65.7551 81.844C65.7551 82.332 65.8551 82.764 66.0551 83.14C66.2631 83.508 66.5431 83.796 66.8951 84.004C67.2551 84.204 67.6591 84.304 68.1071 84.304ZM77.0185 85V83.608L76.9825 83.38V81.052C76.9825 80.516 76.8305 80.104 76.5265 79.816C76.2305 79.528 75.7865 79.384 75.1945 79.384C74.7865 79.384 74.3985 79.452 74.0305 79.588C73.6625 79.724 73.3505 79.904 73.0945 80.128L72.7105 79.492C73.0305 79.22 73.4145 79.012 73.8625 78.868C74.3105 78.716 74.7825 78.64 75.2785 78.64C76.0945 78.64 76.7225 78.844 77.1625 79.252C77.6105 79.652 77.8345 80.264 77.8345 81.088V85H77.0185ZM74.8465 85.06C74.3745 85.06 73.9625 84.984 73.6105 84.832C73.2665 84.672 73.0025 84.456 72.8185 84.184C72.6345 83.904 72.5425 83.584 72.5425 83.224C72.5425 82.896 72.6185 82.6 72.7705 82.336C72.9305 82.064 73.1865 81.848 73.5385 81.688C73.8985 81.52 74.3785 81.436 74.9785 81.436H77.1505V82.072H75.0025C74.3945 82.072 73.9705 82.18 73.7305 82.396C73.4985 82.612 73.3825 82.88 73.3825 83.2C73.3825 83.56 73.5225 83.848 73.8025 84.064C74.0825 84.28 74.4745 84.388 74.9785 84.388C75.4585 84.388 75.8705 84.28 76.2145 84.064C76.5665 83.84 76.8225 83.52 76.9825 83.104L77.1745 83.692C77.0145 84.108 76.7345 84.44 76.3345 84.688C75.9425 84.936 75.4465 85.06 74.8465 85.06ZM80.1026 85V78.7H80.9546V81.484H84.9266V78.7H85.7786V85H84.9266V82.216H80.9546V85H80.1026ZM92.1123 85V83.608L92.0763 83.38V81.052C92.0763 80.516 91.9243 80.104 91.6203 79.816C91.3243 79.528 90.8803 79.384 90.2883 79.384C89.8803 79.384 89.4923 79.452 89.1243 79.588C88.7563 79.724 88.4443 79.904 88.1883 80.128L87.8043 79.492C88.1243 79.22 88.5083 79.012 88.9563 78.868C89.4043 78.716 89.8763 78.64 90.3723 78.64C91.1883 78.64 91.8163 78.844 92.2563 79.252C92.7043 79.652 92.9283 80.264 92.9283 81.088V85H92.1123ZM89.9403 85.06C89.4683 85.06 89.0563 84.984 88.7043 84.832C88.3603 84.672 88.0963 84.456 87.9123 84.184C87.7283 83.904 87.6363 83.584 87.6363 83.224C87.6363 82.896 87.7123 82.6 87.8643 82.336C88.0243 82.064 88.2803 81.848 88.6323 81.688C88.9923 81.52 89.4723 81.436 90.0723 81.436H92.2443V82.072H90.0963C89.4883 82.072 89.0643 82.18 88.8243 82.396C88.5923 82.612 88.4763 82.88 88.4763 83.2C88.4763 83.56 88.6163 83.848 88.8963 84.064C89.1763 84.28 89.5683 84.388 90.0723 84.388C90.5523 84.388 90.9643 84.28 91.3083 84.064C91.6603 83.84 91.9163 83.52 92.0763 83.104L92.2683 83.692C92.1083 84.108 91.8283 84.44 91.4283 84.688C91.0363 84.936 90.5403 85.06 89.9403 85.06ZM95.2564 79.948C95.0804 79.948 94.9284 79.884 94.8004 79.756C94.6804 79.628 94.6204 79.472 94.6204 79.288C94.6204 79.096 94.6804 78.94 94.8004 78.82C94.9284 78.7 95.0804 78.64 95.2564 78.64C95.4324 78.64 95.5804 78.7 95.7004 78.82C95.8284 78.94 95.8924 79.096 95.8924 79.288C95.8924 79.472 95.8284 79.628 95.7004 79.756C95.5804 79.884 95.4324 79.948 95.2564 79.948ZM95.2564 85.06C95.0804 85.06 94.9284 84.996 94.8004 84.868C94.6804 84.74 94.6204 84.584 94.6204 84.4C94.6204 84.208 94.6804 84.052 94.8004 83.932C94.9284 83.812 95.0804 83.752 95.2564 83.752C95.4324 83.752 95.5804 83.812 95.7004 83.932C95.8284 84.052 95.8924 84.208 95.8924 84.4C95.8924 84.584 95.8284 84.74 95.7004 84.868C95.5804 84.996 95.4324 85.06 95.2564 85.06Z" fill="#2C3BA0"/>
</svg>
