<svg width="95" height="87" viewBox="0 0 95 87" fill="none" xmlns="http://www.w3.org/2000/svg">
<path d="M1.416 9V0.599999H2.148L5.988 7.152H5.604L9.408 0.599999H10.14V9H9.288V1.932H9.492L5.988 7.932H5.568L2.04 1.932H2.268V9H1.416ZM15.4667 9.06C14.8107 9.06 14.2347 8.924 13.7387 8.652C13.2427 8.372 12.8547 7.992 12.5747 7.512C12.2947 7.024 12.1547 6.468 12.1547 5.844C12.1547 5.22 12.2867 4.668 12.5507 4.188C12.8227 3.708 13.1907 3.332 13.6547 3.06C14.1267 2.78 14.6547 2.64 15.2387 2.64C15.8307 2.64 16.3547 2.776 16.8107 3.048C17.2747 3.312 17.6387 3.688 17.9027 4.176C18.1667 4.656 18.2987 5.212 18.2987 5.844C18.2987 5.884 18.2947 5.928 18.2867 5.976C18.2867 6.016 18.2867 6.06 18.2867 6.108H12.8027V5.472H17.8307L17.4947 5.724C17.4947 5.268 17.3947 4.864 17.1947 4.512C17.0027 4.152 16.7387 3.872 16.4027 3.672C16.0667 3.472 15.6787 3.372 15.2387 3.372C14.8067 3.372 14.4187 3.472 14.0747 3.672C13.7307 3.872 13.4627 4.152 13.2707 4.512C13.0787 4.872 12.9827 5.284 12.9827 5.748V5.88C12.9827 6.36 13.0867 6.784 13.2947 7.152C13.5107 7.512 13.8067 7.796 14.1827 8.004C14.5667 8.204 15.0027 8.304 15.4907 8.304C15.8747 8.304 16.2307 8.236 16.5587 8.1C16.8947 7.964 17.1827 7.756 17.4227 7.476L17.9027 8.028C17.6227 8.364 17.2707 8.62 16.8467 8.796C16.4307 8.972 15.9707 9.06 15.4667 9.06ZM21.1034 9V3.216L21.3194 3.444H18.7154V2.7H24.3434V3.444H21.7394L21.9554 3.216V9H21.1034ZM29.4873 9V7.608L29.4513 7.38V5.052C29.4513 4.516 29.2993 4.104 28.9953 3.816C28.6993 3.528 28.2553 3.384 27.6633 3.384C27.2553 3.384 26.8673 3.452 26.4993 3.588C26.1313 3.724 25.8193 3.904 25.5633 4.128L25.1793 3.492C25.4993 3.22 25.8833 3.012 26.3313 2.868C26.7793 2.716 27.2513 2.64 27.7473 2.64C28.5633 2.64 29.1913 2.844 29.6313 3.252C30.0793 3.652 30.3033 4.264 30.3033 5.088V9H29.4873ZM27.3153 9.06C26.8433 9.06 26.4313 8.984 26.0793 8.832C25.7353 8.672 25.4713 8.456 25.2873 8.184C25.1033 7.904 25.0113 7.584 25.0113 7.224C25.0113 6.896 25.0873 6.6 25.2393 6.336C25.3993 6.064 25.6553 5.848 26.0073 5.688C26.3673 5.52 26.8473 5.436 27.4473 5.436H29.6193V6.072H27.4713C26.8633 6.072 26.4393 6.18 26.1993 6.396C25.9673 6.612 25.8513 6.88 25.8513 7.2C25.8513 7.56 25.9913 7.848 26.2713 8.064C26.5513 8.28 26.9433 8.388 27.4473 8.388C27.9273 8.388 28.3393 8.28 28.6833 8.064C29.0353 7.84 29.2913 7.52 29.4513 7.104L29.6433 7.692C29.4833 8.108 29.2033 8.44 28.8033 8.688C28.4113 8.936 27.9153 9.06 27.3153 9.06ZM31.4194 8.988L31.4794 8.256C31.5354 8.264 31.5874 8.276 31.6354 8.292C31.6914 8.3 31.7394 8.304 31.7794 8.304C32.0354 8.304 32.2394 8.208 32.3914 8.016C32.5514 7.824 32.6714 7.568 32.7514 7.248C32.8314 6.928 32.8874 6.568 32.9194 6.168C32.9514 5.76 32.9794 5.352 33.0034 4.944L33.1114 2.7H37.7314V9H36.8794V3.192L37.0954 3.444H33.6634L33.8674 3.18L33.7714 5.004C33.7474 5.548 33.7034 6.068 33.6394 6.564C33.5834 7.06 33.4914 7.496 33.3634 7.872C33.2434 8.248 33.0754 8.544 32.8594 8.76C32.6434 8.968 32.3674 9.072 32.0314 9.072C31.9354 9.072 31.8354 9.064 31.7314 9.048C31.6354 9.032 31.5314 9.012 31.4194 8.988ZM39.0014 8.988L39.0614 8.256C39.1174 8.264 39.1694 8.276 39.2174 8.292C39.2734 8.3 39.3214 8.304 39.3614 8.304C39.6174 8.304 39.8214 8.208 39.9734 8.016C40.1334 7.824 40.2534 7.568 40.3334 7.248C40.4134 6.928 40.4694 6.568 40.5014 6.168C40.5334 5.76 40.5614 5.352 40.5854 4.944L40.6934 2.7H45.3134V9H44.4614V3.192L44.6774 3.444H41.2454L41.4494 3.18L41.3534 5.004C41.3294 5.548 41.2854 6.068 41.2214 6.564C41.1654 7.06 41.0734 7.496 40.9454 7.872C40.8254 8.248 40.6574 8.544 40.4414 8.76C40.2254 8.968 39.9494 9.072 39.6134 9.072C39.5174 9.072 39.4174 9.064 39.3134 9.048C39.2174 9.032 39.1134 9.012 39.0014 8.988ZM47.1954 10.752L47.7234 8.532L47.8194 9.048C47.6354 9.048 47.4794 8.988 47.3514 8.868C47.2314 8.748 47.1714 8.592 47.1714 8.4C47.1714 8.208 47.2314 8.052 47.3514 7.932C47.4794 7.812 47.6314 7.752 47.8074 7.752C47.9914 7.752 48.1394 7.816 48.2514 7.944C48.3714 8.072 48.4314 8.224 48.4314 8.4C48.4314 8.464 48.4274 8.528 48.4194 8.592C48.4114 8.656 48.3954 8.728 48.3714 8.808C48.3474 8.888 48.3154 8.984 48.2754 9.096L47.7714 10.752H47.1954ZM57.295 9.072C56.663 9.072 56.079 8.968 55.543 8.76C55.007 8.544 54.543 8.244 54.151 7.86C53.759 7.476 53.451 7.024 53.227 6.504C53.011 5.984 52.903 5.416 52.903 4.8C52.903 4.184 53.011 3.616 53.227 3.096C53.451 2.576 53.759 2.124 54.151 1.74C54.551 1.356 55.019 1.06 55.555 0.852C56.091 0.636 56.675 0.528 57.307 0.528C57.915 0.528 58.487 0.632 59.023 0.84C59.559 1.04 60.011 1.344 60.379 1.752L59.815 2.316C59.471 1.964 59.091 1.712 58.675 1.56C58.259 1.4 57.811 1.32 57.331 1.32C56.827 1.32 56.359 1.408 55.927 1.584C55.495 1.752 55.119 1.996 54.799 2.316C54.479 2.628 54.227 2.996 54.043 3.42C53.867 3.836 53.779 4.296 53.779 4.8C53.779 5.304 53.867 5.768 54.043 6.192C54.227 6.608 54.479 6.976 54.799 7.296C55.119 7.608 55.495 7.852 55.927 8.028C56.359 8.196 56.827 8.28 57.331 8.28C57.811 8.28 58.259 8.2 58.675 8.04C59.091 7.88 59.471 7.624 59.815 7.272L60.379 7.836C60.011 8.244 59.559 8.552 59.023 8.76C58.487 8.968 57.911 9.072 57.295 9.072ZM63.0331 9V3.216L63.2491 3.444H60.6451V2.7H66.2731V3.444H63.6691L63.8851 3.216V9H63.0331ZM69.912 9.06C69.256 9.06 68.68 8.924 68.184 8.652C67.688 8.372 67.3 7.992 67.02 7.512C66.74 7.024 66.6 6.468 66.6 5.844C66.6 5.22 66.732 4.668 66.996 4.188C67.268 3.708 67.636 3.332 68.1 3.06C68.572 2.78 69.1 2.64 69.684 2.64C70.276 2.64 70.8 2.776 71.256 3.048C71.72 3.312 72.084 3.688 72.348 4.176C72.612 4.656 72.744 5.212 72.744 5.844C72.744 5.884 72.74 5.928 72.732 5.976C72.732 6.016 72.732 6.06 72.732 6.108H67.248V5.472H72.276L71.94 5.724C71.94 5.268 71.84 4.864 71.64 4.512C71.448 4.152 71.184 3.872 70.848 3.672C70.512 3.472 70.124 3.372 69.684 3.372C69.252 3.372 68.864 3.472 68.52 3.672C68.176 3.872 67.908 4.152 67.716 4.512C67.524 4.872 67.428 5.284 67.428 5.748V5.88C67.428 6.36 67.532 6.784 67.74 7.152C67.956 7.512 68.252 7.796 68.628 8.004C69.012 8.204 69.448 8.304 69.936 8.304C70.32 8.304 70.676 8.236 71.004 8.1C71.34 7.964 71.628 7.756 71.868 7.476L72.348 8.028C72.068 8.364 71.716 8.62 71.292 8.796C70.876 8.972 70.416 9.06 69.912 9.06ZM79.25 9L76.658 5.88L77.366 5.46L80.258 9H79.25ZM74.63 9V2.7H75.482V9H74.63ZM75.218 6.192V5.46H77.246V6.192H75.218ZM77.438 5.94L76.646 5.82L79.154 2.7H80.078L77.438 5.94ZM80.4506 8.988L80.5106 8.256C80.5666 8.264 80.6186 8.276 80.6666 8.292C80.7226 8.3 80.7706 8.304 80.8106 8.304C81.0666 8.304 81.2706 8.208 81.4226 8.016C81.5826 7.824 81.7026 7.568 81.7826 7.248C81.8626 6.928 81.9186 6.568 81.9506 6.168C81.9826 5.76 82.0106 5.352 82.0346 4.944L82.1426 2.7H86.7626V9H85.9106V3.192L86.1266 3.444H82.6946L82.8986 3.18L82.8026 5.004C82.7786 5.548 82.7346 6.068 82.6706 6.564C82.6146 7.06 82.5226 7.496 82.3946 7.872C82.2746 8.248 82.1066 8.544 81.8906 8.76C81.6746 8.968 81.3986 9.072 81.0626 9.072C80.9666 9.072 80.8666 9.064 80.7626 9.048C80.6666 9.032 80.5626 9.012 80.4506 8.988ZM91.7767 9.06C91.1687 9.06 90.6207 8.924 90.1327 8.652C89.6527 8.372 89.2727 7.992 88.9927 7.512C88.7127 7.024 88.5727 6.468 88.5727 5.844C88.5727 5.212 88.7127 4.656 88.9927 4.176C89.2727 3.696 89.6527 3.32 90.1327 3.048C90.6127 2.776 91.1607 2.64 91.7767 2.64C92.4007 2.64 92.9527 2.776 93.4327 3.048C93.9207 3.32 94.3007 3.696 94.5727 4.176C94.8527 4.656 94.9927 5.212 94.9927 5.844C94.9927 6.468 94.8527 7.024 94.5727 7.512C94.3007 7.992 93.9207 8.372 93.4327 8.652C92.9447 8.924 92.3927 9.06 91.7767 9.06ZM91.7767 8.304C92.2327 8.304 92.6367 8.204 92.9887 8.004C93.3407 7.796 93.6167 7.508 93.8167 7.14C94.0247 6.764 94.1287 6.332 94.1287 5.844C94.1287 5.348 94.0247 4.916 93.8167 4.548C93.6167 4.18 93.3407 3.896 92.9887 3.696C92.6367 3.488 92.2367 3.384 91.7887 3.384C91.3407 3.384 90.9407 3.488 90.5887 3.696C90.2367 3.896 89.9567 4.18 89.7487 4.548C89.5407 4.916 89.4367 5.348 89.4367 5.844C89.4367 6.332 89.5407 6.764 89.7487 7.14C89.9567 7.508 90.2367 7.796 90.5887 8.004C90.9407 8.204 91.3367 8.304 91.7767 8.304ZM1.368 28V19.6H2.256V28H1.368ZM4.98909 28V19.6H8.13309C8.84509 19.6 9.45709 19.716 9.96909 19.948C10.4811 20.172 10.8731 20.5 11.1451 20.932C11.4251 21.356 11.5651 21.872 11.5651 22.48C11.5651 23.072 11.4251 23.584 11.1451 24.016C10.8731 24.44 10.4811 24.768 9.96909 25C9.45709 25.232 8.84509 25.348 8.13309 25.348H5.48109L5.87709 24.928V28H4.98909ZM5.87709 25L5.48109 24.568H8.10909C8.94909 24.568 9.58509 24.388 10.0171 24.028C10.4571 23.66 10.6771 23.144 10.6771 22.48C10.6771 21.808 10.4571 21.288 10.0171 20.92C9.58509 20.552 8.94909 20.368 8.10909 20.368H5.48109L5.87709 19.948V25ZM16.3024 28.072C15.5584 28.072 14.9304 27.908 14.4184 27.58C13.9064 27.244 13.5184 26.764 13.2544 26.14C12.9904 25.508 12.8584 24.752 12.8584 23.872C12.8584 22.92 13.0184 22.124 13.3384 21.484C13.6664 20.836 14.1184 20.348 14.6944 20.02C15.2704 19.692 15.9384 19.528 16.6984 19.528C17.0744 19.528 17.4344 19.564 17.7784 19.636C18.1224 19.708 18.4264 19.824 18.6904 19.984L18.3424 20.68C18.1264 20.536 17.8784 20.436 17.5984 20.38C17.3184 20.316 17.0224 20.284 16.7104 20.284C15.8064 20.284 15.0824 20.572 14.5384 21.148C14.0024 21.724 13.7344 22.584 13.7344 23.728C13.7344 23.904 13.7424 24.124 13.7584 24.388C13.7824 24.644 13.8304 24.9 13.9024 25.156L13.6024 24.928C13.6904 24.512 13.8624 24.16 14.1184 23.872C14.3744 23.576 14.6944 23.352 15.0784 23.2C15.4624 23.048 15.8824 22.972 16.3384 22.972C16.8984 22.972 17.3904 23.076 17.8144 23.284C18.2384 23.492 18.5704 23.784 18.8104 24.16C19.0504 24.536 19.1704 24.98 19.1704 25.492C19.1704 26.012 19.0464 26.468 18.7984 26.86C18.5504 27.244 18.2064 27.544 17.7664 27.76C17.3344 27.968 16.8464 28.072 16.3024 28.072ZM16.2664 27.34C16.6664 27.34 17.0184 27.268 17.3224 27.124C17.6344 26.972 17.8784 26.76 18.0544 26.488C18.2304 26.208 18.3184 25.884 18.3184 25.516C18.3184 24.964 18.1264 24.524 17.7424 24.196C17.3664 23.868 16.8544 23.704 16.2064 23.704C15.7744 23.704 15.3984 23.784 15.0784 23.944C14.7584 24.104 14.5064 24.324 14.3224 24.604C14.1384 24.876 14.0464 25.188 14.0464 25.54C14.0464 25.844 14.1304 26.136 14.2984 26.416C14.4664 26.688 14.7144 26.912 15.0424 27.088C15.3784 27.256 15.7864 27.34 16.2664 27.34ZM21.5531 28L25.1771 19.984L25.4411 20.368H20.2451L20.6891 19.948V21.94H19.8371V19.6H26.0051V20.212L22.4891 28H21.5531ZM6.636 43.448C6.156 43.664 5.676 43.828 5.196 43.94C4.724 44.052 4.268 44.108 3.828 44.108C2.844 44.108 2.076 43.872 1.524 43.4C0.98 42.92 0.708 42.244 0.708 41.372V38.6H1.584V41.276C1.584 41.924 1.788 42.428 2.196 42.788C2.612 43.148 3.184 43.328 3.912 43.328C4.344 43.328 4.792 43.272 5.256 43.16C5.72 43.04 6.18 42.872 6.636 42.656V43.448ZM6.48 47V38.6H7.344V47H6.48ZM12.6893 47.06C12.0333 47.06 11.4573 46.924 10.9613 46.652C10.4653 46.372 10.0773 45.992 9.79734 45.512C9.51734 45.024 9.37734 44.468 9.37734 43.844C9.37734 43.22 9.50934 42.668 9.77334 42.188C10.0453 41.708 10.4133 41.332 10.8773 41.06C11.3493 40.78 11.8773 40.64 12.4613 40.64C13.0533 40.64 13.5773 40.776 14.0333 41.048C14.4973 41.312 14.8613 41.688 15.1253 42.176C15.3893 42.656 15.5213 43.212 15.5213 43.844C15.5213 43.884 15.5173 43.928 15.5093 43.976C15.5093 44.016 15.5093 44.06 15.5093 44.108H10.0253V43.472H15.0533L14.7173 43.724C14.7173 43.268 14.6173 42.864 14.4173 42.512C14.2253 42.152 13.9613 41.872 13.6253 41.672C13.2893 41.472 12.9013 41.372 12.4613 41.372C12.0293 41.372 11.6413 41.472 11.2973 41.672C10.9533 41.872 10.6853 42.152 10.4933 42.512C10.3013 42.872 10.2053 43.284 10.2053 43.748V43.88C10.2053 44.36 10.3093 44.784 10.5173 45.152C10.7333 45.512 11.0293 45.796 11.4053 46.004C11.7893 46.204 12.2253 46.304 12.7133 46.304C13.0973 46.304 13.4533 46.236 13.7813 46.1C14.1173 45.964 14.4053 45.756 14.6453 45.476L15.1253 46.028C14.8453 46.364 14.4933 46.62 14.0693 46.796C13.6533 46.972 13.1933 47.06 12.6893 47.06ZM20.6593 47.06C20.1153 47.06 19.6233 46.936 19.1833 46.688C18.7433 46.432 18.3913 46.068 18.1273 45.596C17.8713 45.116 17.7433 44.532 17.7433 43.844C17.7433 43.156 17.8713 42.576 18.1273 42.104C18.3833 41.624 18.7313 41.26 19.1713 41.012C19.6113 40.764 20.1073 40.64 20.6593 40.64C21.2593 40.64 21.7953 40.776 22.2673 41.048C22.7473 41.312 23.1233 41.688 23.3953 42.176C23.6673 42.656 23.8033 43.212 23.8033 43.844C23.8033 44.484 23.6673 45.044 23.3953 45.524C23.1233 46.004 22.7473 46.38 22.2673 46.652C21.7953 46.924 21.2593 47.06 20.6593 47.06ZM17.4073 49.328V40.7H18.2233V42.596L18.1393 43.856L18.2593 45.128V49.328H17.4073ZM20.5993 46.304C21.0473 46.304 21.4473 46.204 21.7993 46.004C22.1513 45.796 22.4313 45.508 22.6393 45.14C22.8473 44.764 22.9513 44.332 22.9513 43.844C22.9513 43.356 22.8473 42.928 22.6393 42.56C22.4313 42.192 22.1513 41.904 21.7993 41.696C21.4473 41.488 21.0473 41.384 20.5993 41.384C20.1513 41.384 19.7473 41.488 19.3873 41.696C19.0353 41.904 18.7553 42.192 18.5473 42.56C18.3473 42.928 18.2473 43.356 18.2473 43.844C18.2473 44.332 18.3473 44.764 18.5473 45.14C18.7553 45.508 19.0353 45.796 19.3873 46.004C19.7473 46.204 20.1513 46.304 20.5993 46.304ZM25.6339 47V40.7H26.4859V43.484H30.4579V40.7H31.3099V47H30.4579V44.216H26.4859V47H25.6339ZM39.8755 47V40.7H40.7275V47H39.8755ZM36.3835 42.92C37.1755 42.928 37.7795 43.104 38.1955 43.448C38.6115 43.792 38.8195 44.288 38.8195 44.936C38.8195 45.608 38.5955 46.124 38.1475 46.484C37.6995 46.844 37.0595 47.02 36.2275 47.012L33.7315 47V40.7H34.5835V42.896L36.3835 42.92ZM36.1675 46.364C36.7595 46.372 37.2035 46.256 37.4995 46.016C37.8035 45.768 37.9555 45.408 37.9555 44.936C37.9555 44.464 37.8075 44.12 37.5115 43.904C37.2155 43.68 36.7675 43.564 36.1675 43.556L34.5835 43.532V46.34L36.1675 46.364ZM43.1534 47V40.7H44.0054V45.704L48.2174 40.7H48.9734V47H48.1214V41.984L43.9214 47H43.1534ZM46.0094 39.788C45.4814 39.788 45.0534 39.656 44.7254 39.392C44.4054 39.12 44.2374 38.732 44.2214 38.228H44.8334C44.8414 38.548 44.9534 38.8 45.1694 38.984C45.3854 39.168 45.6654 39.26 46.0094 39.26C46.3534 39.26 46.6334 39.168 46.8494 38.984C47.0734 38.8 47.1894 38.548 47.1974 38.228H47.8094C47.8014 38.732 47.6334 39.12 47.3054 39.392C46.9774 39.656 46.5454 39.788 46.0094 39.788ZM1.368 66V57.6H2.256V66H1.368ZM4.98909 66V57.6H8.13309C8.84509 57.6 9.45709 57.716 9.96909 57.948C10.4811 58.172 10.8731 58.5 11.1451 58.932C11.4251 59.356 11.5651 59.872 11.5651 60.48C11.5651 61.072 11.4251 61.584 11.1451 62.016C10.8731 62.44 10.4811 62.768 9.96909 63C9.45709 63.232 8.84509 63.348 8.13309 63.348H5.48109L5.87709 62.928V66H4.98909ZM5.87709 63L5.48109 62.568H8.10909C8.94909 62.568 9.58509 62.388 10.0171 62.028C10.4571 61.66 10.6771 61.144 10.6771 60.48C10.6771 59.808 10.4571 59.288 10.0171 58.92C9.58509 58.552 8.94909 58.368 8.10909 58.368H5.48109L5.87709 57.948V63ZM15.9184 66.072C15.2944 66.072 14.6944 65.972 14.1184 65.772C13.5504 65.564 13.1104 65.3 12.7984 64.98L13.1464 64.296C13.4424 64.584 13.8384 64.828 14.3344 65.028C14.8384 65.22 15.3664 65.316 15.9184 65.316C16.4464 65.316 16.8744 65.252 17.2024 65.124C17.5384 64.988 17.7824 64.808 17.9344 64.584C18.0944 64.36 18.1744 64.112 18.1744 63.84C18.1744 63.512 18.0784 63.248 17.8864 63.048C17.7024 62.848 17.4584 62.692 17.1544 62.58C16.8504 62.46 16.5144 62.356 16.1464 62.268C15.7784 62.18 15.4104 62.088 15.0424 61.992C14.6744 61.888 14.3344 61.752 14.0224 61.584C13.7184 61.416 13.4704 61.196 13.2784 60.924C13.0944 60.644 13.0024 60.28 13.0024 59.832C13.0024 59.416 13.1104 59.036 13.3264 58.692C13.5504 58.34 13.8904 58.06 14.3464 57.852C14.8024 57.636 15.3864 57.528 16.0984 57.528C16.5704 57.528 17.0384 57.596 17.5024 57.732C17.9664 57.86 18.3664 58.04 18.7024 58.272L18.4024 58.98C18.0424 58.74 17.6584 58.564 17.2504 58.452C16.8504 58.34 16.4624 58.284 16.0864 58.284C15.5824 58.284 15.1664 58.352 14.8384 58.488C14.5104 58.624 14.2664 58.808 14.1064 59.04C13.9544 59.264 13.8784 59.52 13.8784 59.808C13.8784 60.136 13.9704 60.4 14.1544 60.6C14.3464 60.8 14.5944 60.956 14.8984 61.068C15.2104 61.18 15.5504 61.28 15.9184 61.368C16.2864 61.456 16.6504 61.552 17.0104 61.656C17.3784 61.76 17.7144 61.896 18.0184 62.064C18.3304 62.224 18.5784 62.44 18.7624 62.712C18.9544 62.984 19.0504 63.34 19.0504 63.78C19.0504 64.188 18.9384 64.568 18.7144 64.92C18.4904 65.264 18.1464 65.544 17.6824 65.76C17.2264 65.968 16.6384 66.072 15.9184 66.072ZM0.48 82.792V82.168L4.932 76.6H5.892L1.476 82.168L1.008 82.024H7.764V82.792H0.48ZM5.22 85V82.792L5.244 82.024V80.08H6.084V85H5.22ZM8.83997 86.752L9.36797 84.532L9.46397 85.048C9.27997 85.048 9.12397 84.988 8.99597 84.868C8.87597 84.748 8.81597 84.592 8.81597 84.4C8.81597 84.208 8.87597 84.052 8.99597 83.932C9.12397 83.812 9.27597 83.752 9.45197 83.752C9.63597 83.752 9.78397 83.816 9.89597 83.944C10.016 84.072 10.076 84.224 10.076 84.4C10.076 84.464 10.072 84.528 10.064 84.592C10.056 84.656 10.04 84.728 10.016 84.808C9.99197 84.888 9.95997 84.984 9.91997 85.096L9.41597 86.752H8.83997ZM12.6703 85L16.2943 76.984L16.5583 77.368H11.3623L11.8063 76.948V78.94H10.9543V76.6H17.1223V77.212L13.6063 85H12.6703Z" fill="#646986"/>
</svg>
